<?xml version="1.0" encoding="UTF-8"?><svg id="Layer_1" xmlns="http://www.w3.org/2000/svg" width="60" height="60" viewBox="0 0 60 60"><defs><style>.cls-1{fill:#fff;}</style></defs><path class="cls-1" d="m30,55.5c-14.06,0-25.5-11.44-25.5-25.5S15.94,4.5,30,4.5s25.5,11.44,25.5,25.5-11.44,25.5-25.5,25.5Zm0-50c-13.51,0-24.5,10.99-24.5,24.5s10.99,24.5,24.5,24.5,24.5-10.99,24.5-24.5S43.51,5.5,30,5.5Z"/><path class="cls-1" d="m16.88,20.06l8.28,4.59c.07.04.14.06.22.06.05,0,.09,0,.14-.02.12-.04.22-.13.27-.24,1.3-2.82,2.67-5.24,4.07-7.24l3.4,4.45-2.43,1.39c-.17.1-.26.3-.22.5s.22.34.42.35l8.2.41s.02,0,.02,0c.16,0,.3-.08.39-.22l4.51-7.35c.11-.18.08-.41-.07-.56-.15-.15-.38-.17-.56-.07l-2.92,1.79-4.75-6.78s-.01,0-.02-.01c-.05-.06-.11-.11-.18-.14,0,0-.02,0-.03,0-.04-.01-.07-.03-.11-.03-1.52-.11-2.8-.17-3.93-.18-8.51-.11-10.12,1.99-10.27,2.22l-4.59,6.43c-.07.11-.1.24-.07.36.03.13.11.23.22.3Zm23.84-1.16l1.67-1.03-3.38,5.51-6.39-.32,1.54-.88c.11-.06.19-.17.22-.3.03-.13,0-.26-.08-.36l-3.88-5.09c.08-.11.16-.22.24-.32.06-.08.12-.16.18-.23.16-.21.32-.41.48-.59.05-.06.1-.11.15-.17.11-.13.23-.26.34-.39.06-.06.12-.13.17-.19.1-.11.2-.22.3-.32.05-.05.1-.11.15-.16.12-.12.24-.24.36-.35.02-.02.04-.04.06-.06.14-.13.27-.25.4-.36.04-.03.08-.06.11-.1.09-.08.18-.15.27-.22.04-.03.08-.06.12-.09.09-.07.17-.13.26-.19.03-.02.05-.04.08-.06.11-.08.21-.15.31-.21,0,0,.02-.01.03-.02.09-.06.17-.11.25-.16.02-.01.04-.02.06-.04.07-.04.13-.07.19-.1.02,0,.04-.02.05-.03.14-.07.25-.12.35-.16l4.8,6.85c.14.2.41.25.61.13Zm-18.65-5.4s1.54-1.93,9.52-1.84c.67,0,1.4.03,2.21.07-.02.01-.04.03-.05.04-.07.05-.15.11-.23.16-.06.04-.12.09-.18.13-.08.06-.17.13-.26.2-.06.05-.13.1-.19.16-.09.08-.19.16-.29.25-.07.06-.13.11-.2.18-.1.09-.21.2-.32.3-.07.07-.14.13-.21.2-.12.11-.24.24-.36.37-.07.07-.13.13-.2.21-.13.14-.26.29-.4.45-.06.07-.12.14-.19.21-.15.18-.31.37-.47.57-.05.06-.1.12-.15.18-.21.27-.42.55-.64.85-1.48,2.04-2.93,4.54-4.3,7.46l-7.41-4.11,4.3-6.02Z"/><path class="cls-1" d="m48.82,31.13l-3.27-7.2c-.05-.12-.15-.21-.28-.24-.12-.04-.26-.02-.37.04l-8.12,4.87c-.11.06-.18.17-.21.29-.03.12,0,.25.07.35,1.79,2.53,3.2,4.93,4.24,7.14l-5.56.71v-2.8c.01-.2-.12-.38-.31-.44-.2-.06-.4.02-.51.19l-4.45,6.9c-.09.14-.1.32-.02.46l4.11,7.59c.08.15.23.24.4.24.04,0,.08,0,.12-.02.2-.05.34-.24.33-.45l-.09-3.43,8.24-.72s.03-.02.05-.02c.06-.01.11-.03.15-.06.03-.02.04-.04.07-.06.02-.02.05-.03.06-.05.85-1.25,1.55-2.33,2.12-3.31,4.33-7.28,3.34-9.75,3.22-10Zm-14.42,13.36c-.24.02-.42.22-.41.46l.05,1.96-3.08-5.69,3.47-5.38v1.77c0,.13.05.25.15.34.1.09.23.13.36.11l6.35-.82c.02.06.05.11.07.17.15.36.29.71.42,1.04.02.04.04.09.05.14.13.36.24.7.34,1.03.02.08.05.15.07.23.09.31.17.62.24.9,0,.01,0,.02,0,.03.06.27.11.52.15.76,0,.06.02.11.03.17.04.23.06.44.08.64,0,.03,0,.06,0,.09.01.17.02.32.03.46,0,.04,0,.08,0,.11,0,.14,0,.27,0,.39,0,.03,0,.06,0,.1,0,.08-.01.15-.02.21,0,.02,0,.04,0,.05l-8.33.73Zm10.42-3.82c-.34.58-.73,1.2-1.17,1.87,0-.02,0-.05,0-.08,0-.08-.01-.17-.02-.25,0-.08-.02-.16-.03-.25-.01-.09-.03-.19-.04-.29-.01-.09-.03-.18-.04-.28-.02-.11-.04-.22-.06-.33-.02-.1-.04-.2-.06-.3-.03-.12-.06-.25-.09-.37-.03-.11-.05-.22-.08-.33-.04-.13-.08-.27-.12-.41-.03-.12-.07-.23-.1-.36-.05-.15-.1-.31-.15-.46-.04-.12-.08-.24-.12-.37-.06-.18-.14-.37-.21-.56-.04-.12-.08-.23-.13-.35-.13-.31-.26-.64-.41-.97-1.02-2.3-2.47-4.81-4.31-7.45l7.27-4.36,3.06,6.74s.9,2.32-3.17,9.16Z"/><path class="cls-1" d="m27.95,36.08c-.09-.08-.22-.12-.34-.11-3.09.28-5.87.31-8.31.1l2.16-5.17,2.42,1.41c.18.1.39.08.54-.06.15-.14.18-.36.09-.54l-3.75-7.31c-.08-.15-.23-.24-.39-.25l-8.63-.23h-.01c-.2,0-.38.14-.44.34-.05.2.04.41.22.51l3.01,1.63-3.5,7.5s0,.02,0,.02c-.03.07-.04.14-.03.22,0,.01,0,.02,0,.03,0,.04.01.07.03.11.66,1.37,1.25,2.51,1.8,3.49,4.14,7.39,6.78,7.77,7.05,7.79l7.87.76s.03,0,.04,0c.11,0,.22-.04.31-.12.09-.09.15-.21.15-.34l-.16-9.47c0-.13-.06-.24-.15-.33Zm-12.61-10.27l-1.73-.93,6.47.17,2.92,5.7-1.53-.89c-.11-.07-.25-.08-.37-.04s-.22.13-.27.25l-2.47,5.91c-.16-.02-.33-.04-.48-.06-.06,0-.12-.01-.17-.02-.28-.04-.55-.08-.8-.13-.04,0-.08-.02-.12-.02-.21-.04-.41-.08-.61-.12-.07-.01-.13-.03-.19-.04-.17-.04-.33-.08-.49-.12-.05-.01-.11-.03-.16-.04-.41-.11-.78-.22-1.11-.34-.03-.01-.07-.02-.1-.04-.13-.05-.25-.09-.37-.14-.04-.01-.07-.03-.11-.04-.12-.05-.23-.1-.34-.14-.02,0-.04-.02-.06-.02-.25-.11-.47-.23-.65-.33-.01,0-.03-.02-.04-.02-.08-.04-.15-.09-.21-.13-.01,0-.02-.01-.03-.02-.13-.09-.24-.16-.32-.23l3.53-7.58c.1-.22.02-.47-.19-.59Zm4.65,18.86s-2.46-.38-6.35-7.33c-.33-.58-.68-1.23-1.04-1.94.02.01.05.02.08.04.06.03.13.06.2.09.08.04.17.08.26.12.08.03.16.06.24.1.1.04.19.08.3.12.09.03.18.06.28.1.11.04.22.08.33.11.1.03.21.06.32.1.12.04.24.07.37.11.12.03.25.06.38.1.13.03.26.07.4.1.14.03.3.06.45.09.14.03.27.06.41.08.18.03.38.06.57.09.13.02.25.04.38.06.33.05.68.09,1.05.13,2.5.26,5.4.26,8.61,0l.14,8.47-7.36-.72Z"/></svg>