<?xml version="1.0" encoding="UTF-8"?><svg id="Layer_1" xmlns="http://www.w3.org/2000/svg" width="112" height="112" viewBox="0 0 112 112"><defs><style>.cls-1{fill:#2b73c9;}</style></defs><path class="cls-1" d="m33.86,6.23l3.81-1.33c1.79-.62,3.18-.81,4.16-.55.99.26,1.68.96,2.08,2.12.28.8.29,1.54.02,2.21-.26.68-.8,1.24-1.6,1.69l.03.09c2.17-.36,3.57.36,4.2,2.16.42,1.2.34,2.29-.24,3.25s-1.6,1.7-3.06,2.21l-4.7,1.64-4.7-13.48Zm3.58,5.23l2.58-.9c1.11-.39,1.84-.84,2.21-1.35.36-.52.4-1.19.12-2.01-.26-.76-.72-1.21-1.38-1.35s-1.58-.01-2.76.4l-2.31.8,1.54,4.42Zm.46,1.33l1.76,5.04,2.81-.98c1.09-.38,1.83-.88,2.24-1.49s.45-1.37.14-2.27c-.29-.84-.79-1.35-1.49-1.55-.7-.2-1.62-.1-2.77.31l-2.68.94Z"/><path class="cls-1" d="m56.72,16.21c-1.58-.03-2.82-.53-3.72-1.51-.9-.98-1.33-2.32-1.31-4.04.03-1.73.47-3.09,1.34-4.09.87-1,2.01-1.49,3.45-1.47,1.34.02,2.4.48,3.16,1.38.77.89,1.14,2.06,1.11,3.51l-.02,1.02-7.37-.12c.01,1.26.31,2.22.91,2.88.59.66,1.43,1,2.53,1.02,1.15.02,2.29-.2,3.43-.67l-.02,1.45c-.58.24-1.12.41-1.63.51-.51.1-1.13.14-1.85.13Zm-.28-9.74c-.86-.01-1.55.25-2.07.81-.52.55-.83,1.32-.94,2.31l5.6.09c.02-1.02-.2-1.81-.65-2.36-.45-.55-1.09-.83-1.94-.85Z"/><path class="cls-1" d="m72.38,16.13c-.29.95-.88,1.58-1.74,1.87-.87.3-1.94.25-3.22-.15-1.36-.42-2.35-.96-2.97-1.62l.44-1.44c.41.4.88.76,1.4,1.08.52.32,1.04.56,1.56.72.81.25,1.47.31,1.99.19s.85-.45,1.02-.98c.12-.4.06-.79-.2-1.18-.26-.39-.83-.93-1.71-1.63-.84-.65-1.42-1.17-1.74-1.56-.32-.39-.52-.78-.62-1.18-.09-.4-.07-.83.08-1.29.26-.83.8-1.39,1.63-1.66.83-.27,1.83-.23,3.01.14,1.1.34,2.11.9,3.02,1.67l-.94,1.09c-.9-.74-1.76-1.24-2.59-1.5-.73-.23-1.32-.28-1.77-.17s-.73.37-.85.78c-.08.27-.09.53,0,.76.08.24.25.49.51.76.26.27.78.71,1.56,1.31,1.08.82,1.76,1.52,2.05,2.09s.33,1.21.12,1.89Z"/><path class="cls-1" d="m78.92,21.79c.24.15.49.28.74.38.25.1.45.18.61.22l-.65,1.06c-.19-.02-.45-.1-.77-.23-.32-.13-.6-.27-.83-.41-1.76-1.08-2.07-2.56-.93-4.41l3.33-5.42-1.31-.8.41-.67,1.66.23,1.78-1.59.8.49-1.3,2.11,2.65,1.63-.66,1.07-2.65-1.63-3.3,5.37c-.34.55-.47,1.05-.39,1.5.08.45.35.82.8,1.1Z"/><path class="cls-1" d="m89.5,28.9c-.72.69-1.53.96-2.43.8-.9-.16-1.82-.72-2.76-1.68-.99-1.02-1.6-1.97-1.83-2.85l1.08-1.05c.17.55.41,1.09.71,1.62.3.53.64.99,1.02,1.38.59.61,1.14.98,1.65,1.12s.97.02,1.36-.37c.3-.29.43-.67.39-1.13-.04-.47-.28-1.21-.72-2.25-.43-.97-.69-1.71-.78-2.2-.09-.49-.09-.94.02-1.33.11-.39.34-.76.69-1.1.63-.61,1.37-.83,2.22-.67.86.16,1.71.68,2.58,1.57.8.83,1.42,1.8,1.85,2.92l-1.35.5c-.43-1.08-.95-1.93-1.56-2.56-.53-.55-1.02-.88-1.47-1-.44-.11-.82-.02-1.12.27-.21.2-.33.42-.37.67-.04.25-.02.55.08.91.1.36.34.99.74,1.9.55,1.23.81,2.17.79,2.82-.03.65-.29,1.22-.8,1.71Z"/><path class="cls-1" d="m91.75,38.47c-.72-1.41-.86-2.74-.42-3.99.44-1.25,1.42-2.27,2.95-3.05,1.54-.79,2.95-1.03,4.24-.74,1.29.29,2.26,1.08,2.91,2.35.61,1.19.7,2.34.27,3.44-.43,1.1-1.29,1.98-2.57,2.63l-.91.47-3.36-6.56c-1.1.6-1.81,1.32-2.11,2.15s-.21,1.74.29,2.71c.52,1.03,1.26,1.93,2.2,2.71l-1.29.66c-.48-.4-.89-.8-1.21-1.21-.33-.41-.66-.93-.99-1.57Zm8.47-4.82c-.39-.77-.95-1.25-1.68-1.45-.73-.2-1.56-.12-2.48.25l2.55,4.98c.91-.47,1.5-1.02,1.78-1.68.28-.65.22-1.36-.16-2.11Z"/><path class="cls-1" d="m95.18,47.85l-.36-1.58,14.81-3.38.36,1.58-14.81,3.38Z"/><path class="cls-1" d="m95.99,54.81l-.08-1.62,15.18-.75.08,1.62-15.18.75Z"/><path class="cls-1" d="m94.92,64.4c.31-1.55,1.02-2.68,2.15-3.39s2.52-.9,4.2-.57c1.69.34,2.95,1.02,3.79,2.05s1.11,2.25.83,3.65c-.26,1.32-.9,2.27-1.92,2.87-1.02.6-2.23.75-3.65.47l-1.01-.2,1.43-7.23c-1.24-.21-2.24-.09-2.99.38-.76.46-1.24,1.23-1.45,2.31-.22,1.13-.21,2.29.04,3.49l-1.42-.28c-.13-.61-.2-1.18-.21-1.7,0-.52.06-1.14.2-1.85Zm9.64,1.46c.17-.84.03-1.57-.42-2.18-.45-.61-1.15-1.06-2.1-1.34l-1.09,5.49c1,.2,1.81.13,2.44-.21.62-.34,1.02-.93,1.18-1.76Z"/><path class="cls-1" d="m100.02,81.69c-.22.42-.45.78-.69,1.08l-1.23-.89c.29-.35.51-.67.67-.97.4-.77.43-1.59.09-2.46-.34-.87-.98-1.55-1.91-2.03l-5.09-2.65.75-1.44,9.5,4.94-.62,1.19-1.84-.75-.04.07c.43.67.69,1.35.77,2.02.08.67-.04,1.3-.35,1.9Z"/><path class="cls-1" d="m85.04,87.84c-.73-.67-1.05-1.47-.95-2.38.1-.91.61-1.86,1.52-2.85.96-1.05,1.87-1.71,2.74-1.99l1.11,1.02c-.54.2-1.06.47-1.57.8-.51.33-.95.7-1.32,1.1-.57.62-.91,1.19-1.02,1.71-.11.52.04.96.45,1.34.31.28.69.39,1.15.32.46-.07,1.2-.35,2.2-.85.95-.48,1.66-.79,2.15-.91.49-.12.93-.14,1.33-.05.4.09.78.29,1.14.62.64.59.91,1.32.8,2.18-.11.86-.58,1.75-1.42,2.66-.78.85-1.71,1.52-2.8,2.02l-.58-1.32c1.05-.49,1.87-1.06,2.46-1.7.52-.57.82-1.07.91-1.53s-.03-.82-.34-1.1c-.21-.19-.44-.3-.69-.33-.25-.03-.55.02-.9.13s-.97.4-1.85.85c-1.2.62-2.12.94-2.77.95s-1.23-.22-1.75-.7Z"/><path class="cls-1" d="m77.95,105.86l-3.81,1.31c-1.79.62-3.18.8-4.16.54-.98-.26-1.68-.97-2.08-2.13-.28-.8-.28-1.54-.01-2.21.27-.67.8-1.24,1.6-1.68l-.03-.09c-2.17.35-3.57-.37-4.19-2.17-.42-1.21-.33-2.29.25-3.25.58-.96,1.61-1.69,3.07-2.19l4.71-1.62,4.65,13.5Zm-4.02-6.57l-1.74-5.05-2.82.97c-1.09.38-1.84.87-2.24,1.48-.41.61-.45,1.37-.14,2.27.29.84.78,1.36,1.48,1.56.7.2,1.62.1,2.77-.29l2.69-.93Zm.46,1.33l-2.58.89c-1.11.38-1.85.83-2.21,1.35-.37.52-.41,1.19-.12,2.01.26.76.72,1.21,1.38,1.36s1.58.02,2.76-.39l2.31-.79-1.52-4.42Z"/><path class="cls-1" d="m55.18,95.79c1.58.03,2.82.53,3.72,1.51.9.98,1.33,2.32,1.31,4.04-.03,1.73-.47,3.09-1.34,4.09-.87,1-2.01,1.49-3.45,1.47-1.34-.02-2.4-.48-3.16-1.38-.77-.89-1.14-2.06-1.11-3.51l.02-1.02,7.37.12c-.01-1.26-.31-2.22-.91-2.88-.59-.66-1.43-1-2.53-1.02-1.15-.02-2.29.2-3.43.67l.02-1.45c.58-.24,1.12-.41,1.63-.51.51-.1,1.13-.14,1.85-.13Zm.28,9.74c.86.01,1.55-.25,2.07-.81.52-.55.83-1.32.94-2.31l-5.6-.09c-.02,1.02.2,1.81.65,2.36.45.55,1.09.83,1.94.85Z"/><path class="cls-1" d="m39.5,95.82c.3-.95.88-1.57,1.75-1.87.87-.29,1.94-.24,3.22.16,1.35.42,2.34.97,2.97,1.63l-.45,1.44c-.41-.4-.88-.76-1.4-1.08-.52-.32-1.04-.56-1.56-.72-.81-.25-1.47-.32-1.99-.2-.52.12-.86.45-1.02.98-.12.4-.06.79.2,1.18.26.39.82.93,1.7,1.63.84.65,1.42,1.17,1.74,1.56.32.39.52.78.61,1.18.09.4.06.83-.08,1.29-.26.83-.8,1.38-1.63,1.65-.83.27-1.83.22-3.01-.15-1.1-.34-2.1-.9-3.02-1.68l.94-1.09c.89.74,1.76,1.24,2.59,1.51.73.23,1.32.29,1.77.17s.73-.37.86-.78c.09-.27.09-.53,0-.76-.08-.24-.25-.49-.5-.76s-.77-.71-1.55-1.31c-1.07-.82-1.75-1.52-2.04-2.1s-.32-1.21-.11-1.89Z"/><path class="cls-1" d="m32.95,90.12c-.24-.15-.49-.28-.74-.38-.25-.1-.45-.18-.61-.22l.65-1.05c.19.02.45.1.77.23.32.13.6.27.83.42,1.76,1.09,2.06,2.56.92,4.42l-3.36,5.41,1.3.81-.41.66-1.66-.24-1.79,1.58-.8-.49,1.31-2.11-2.64-1.64.66-1.07,2.64,1.64,3.32-5.35c.34-.55.47-1.05.39-1.5-.08-.45-.34-.82-.8-1.1Z"/><path class="cls-1" d="m22.42,83c.72-.69,1.53-.96,2.43-.8s1.82.72,2.75,1.69c.98,1.02,1.59,1.98,1.82,2.86l-1.08,1.04c-.17-.55-.4-1.09-.71-1.62-.3-.53-.64-.99-1.02-1.38-.59-.61-1.14-.98-1.65-1.13s-.97-.02-1.36.36c-.3.29-.43.67-.39,1.13.04.47.27,1.22.71,2.25.42.97.68,1.71.77,2.2.09.49.08.94-.03,1.33-.11.39-.34.76-.69,1.1-.63.6-1.37.83-2.23.67-.86-.16-1.71-.69-2.57-1.58-.8-.83-1.41-1.8-1.84-2.92l1.35-.5c.43,1.08.94,1.94,1.55,2.56.53.55,1.02.89,1.47,1,.44.11.82.02,1.12-.27.21-.2.33-.42.38-.67.04-.25.02-.55-.08-.91s-.34-.99-.73-1.9c-.55-1.24-.81-2.18-.78-2.82.03-.65.3-1.22.81-1.71Z"/><path class="cls-1" d="m20.2,73.42c.72,1.41.85,2.74.41,3.99-.45,1.25-1.43,2.27-2.96,3.04-1.54.78-2.95,1.02-4.24.72-1.29-.3-2.26-1.09-2.91-2.36-.61-1.2-.69-2.34-.26-3.44.43-1.1,1.29-1.97,2.58-2.62l.91-.46,3.34,6.58c1.11-.6,1.81-1.31,2.12-2.14.31-.83.21-1.74-.28-2.71-.52-1.03-1.25-1.93-2.19-2.72l1.29-.65c.48.4.88.8,1.21,1.21.33.41.65.93.98,1.58Zm-8.48,4.8c.39.77.95,1.25,1.68,1.45.73.2,1.56.12,2.48-.25l-2.53-4.99c-.91.46-1.51,1.02-1.79,1.67-.28.65-.23,1.36.16,2.11Z"/><path class="cls-1" d="m16.8,64.03l.36,1.58-14.82,3.34-.36-1.58,14.82-3.34Z"/><path class="cls-1" d="m16.01,57.06l.07,1.62-15.18.7-.07-1.62,15.18-.7Z"/><path class="cls-1" d="m17.1,47.48c-.31,1.55-1.03,2.68-2.16,3.39-1.12.71-2.53.89-4.21.55-1.69-.34-2.95-1.03-3.78-2.06-.83-1.03-1.1-2.25-.82-3.66.27-1.31.91-2.27,1.93-2.86,1.02-.59,2.24-.75,3.65-.46l1.01.2-1.46,7.23c1.24.22,2.24.09,2.99-.37.76-.46,1.24-1.23,1.46-2.3.23-1.13.22-2.29-.03-3.49l1.42.29c.13.61.2,1.18.2,1.7,0,.52-.06,1.14-.21,1.85Zm-9.63-1.49c-.17.84-.03,1.57.42,2.18.45.61,1.15,1.06,2.1,1.34l1.1-5.49c-1-.2-1.81-.13-2.44.21-.62.34-1.02.92-1.19,1.75Z"/><path class="cls-1" d="m12.08,30.15c.22-.42.45-.78.7-1.08l1.23.9c-.29.35-.52.67-.67.97-.4.77-.44,1.59-.1,2.46.34.87.97,1.55,1.9,2.04l5.08,2.67-.75,1.44-9.48-4.97.62-1.18,1.84.76.04-.07c-.43-.68-.69-1.35-.76-2.02-.07-.67.04-1.3.36-1.9Z"/><path class="cls-1" d="m27.06,24.07c.73.68,1.05,1.47.94,2.38-.11.91-.61,1.86-1.52,2.85-.96,1.04-1.88,1.7-2.75,1.98l-1.11-1.02c.54-.2,1.06-.47,1.57-.8s.95-.7,1.32-1.1c.57-.62.92-1.19,1.03-1.71s-.04-.96-.44-1.34c-.31-.28-.69-.39-1.15-.33-.46.06-1.2.35-2.21.84-.95.48-1.67.78-2.15.9s-.93.14-1.33.05c-.4-.09-.78-.3-1.13-.63-.64-.59-.91-1.32-.8-2.18.11-.86.58-1.75,1.42-2.66.78-.85,1.72-1.52,2.81-2.01l.58,1.32c-1.05.49-1.88,1.05-2.47,1.7-.52.56-.83,1.07-.91,1.52-.09.45.02.82.33,1.11.21.19.44.31.69.34s.55-.01.9-.13c.35-.12.97-.4,1.85-.84,1.2-.62,2.12-.93,2.77-.94.65-.01,1.23.23,1.75.71Z"/></svg>