<?xml version="1.0" encoding="UTF-8"?><svg id="Layer_1" xmlns="http://www.w3.org/2000/svg" width="60" height="60" viewBox="0 0 60 60"><defs><style>.cls-1{fill:#fff;}</style></defs><path class="cls-1" d="m30,55.5c-14.06,0-25.5-11.44-25.5-25.5S15.94,4.5,30,4.5s25.5,11.44,25.5,25.5-11.44,25.5-25.5,25.5Zm0-50c-13.51,0-24.5,10.99-24.5,24.5s10.99,24.5,24.5,24.5,24.5-10.99,24.5-24.5S43.51,5.5,30,5.5Z"/><path class="cls-1" d="m52.27,24.35c-.55-1.4-1.93-2.36-3.91-2.7-1.9-.32-4.14-.04-6.3.8-2.37.92-4.35,2.41-5.48,4.08-.06-2.96-1.63-5.5-3.88-6.7.23-1.62,1.08-5.13,2.76-5.13.23,0,.42-.19.42-.42s-.19-.42-.42-.42c-2.44,0-3.31,4.11-3.55,5.62-.65-.23-1.34-.35-2.05-.35-.61,0-1.19.09-1.76.26-.26-1.58-1.15-5.53-3.54-5.53-.23,0-.42.19-.42.42s.19.42.42.42c1.63,0,2.48,3.32,2.74,5-2.3,1.07-3.96,3.53-4.15,6.45-1.16-1.51-3.03-2.85-5.2-3.7-2.16-.84-4.39-1.12-6.3-.8-1.98.34-3.36,1.3-3.91,2.7-1.07,2.75,1.61,6.38,5.98,8.18-1.84,1.5-2.67,3.43-2.08,4.98.44,1.11,1.51,1.88,3.02,2.18.42.08.87.12,1.33.12,1.1,0,2.28-.23,3.42-.67.92-.36,1.75-.84,2.46-1.4.13.3.26.61.43.92l.03.06c.05.1.09.2.15.29.04.08.09.16.12.19,1.03,1.72,2.51,3.02,4.25,3.73.14.13.28.27.41.4,1.52,1.51,1.91,2.19,2.01,2.45.06.19.21.33.4.36.03,0,.07.02.11.02.15,0,.31-.08.44-.22.11-.14,1.12-1.46,2.45-2.94,1.78-.68,3.35-2.03,4.42-3.79.05-.08.08-.17.13-.25l.16-.29h0v-.02s.1-.2.1-.2c.17-.32.31-.66.45-1.02.61.41,1.24.77,1.95,1.04,1.14.45,2.32.67,3.42.67.46,0,.91-.04,1.34-.12,1.51-.29,2.58-1.07,3.02-2.18.51-1.32,0-2.94-1.35-4.32,4.35-1.82,7-5.43,5.94-8.17Zm-24.55-3.92c.13-.06.25-.11.38-.16.56-.19,1.14-.3,1.76-.3,3.16,0,5.75,2.86,5.88,6.43-.22-.04-.46-.08-.69-.11-.17-.03-.34-.06-.51-.08-.4-.06-.81-.11-1.23-.15-.08,0-.16-.03-.24-.03-2.08-.19-4.29-.2-6.38,0-.14.02-.28.03-.42.05-.34.03-.7.08-1.03.13-.24.03-.48.08-.72.12-.18.03-.36.06-.53.09.1-2.73,1.62-5.03,3.74-5.97Zm-4.63,8.11c.19-.35.4-.71.64-1.03l.16-.22v-.02c.29-.06.57-.11.87-.16.16-.03.31-.06.48-.08.38-.05.77-.1,1.16-.14.11,0,.21-.03.33-.03,2.04-.19,4.21-.19,6.26,0,.16.02.32.04.49.06.33.03.66.07.99.12.22.03.43.08.65.12.24.04.47.08.71.13.11.14.22.29.33.45.21.31.39.63.56.95.04.08.08.17.12.24.04.08.07.17.1.25-.23-.06-.45-.11-.69-.16l-.21-.03c-3.59-.77-8.31-.8-12.1-.06l-.46.09c-.24.05-.46.1-.68.16.04-.11.08-.22.13-.33.05-.1.11-.21.17-.31Zm-3.98,9.8c-1.48.58-3,.77-4.29.51-1.22-.23-2.07-.82-2.39-1.65-.51-1.3.37-3.03,2.2-4.32.29.09.58.19.87.26.03,0,.06,0,.09.02.3.08.6.15.9.2.1.03.19.03.29.05.24.04.46.08.69.1.11,0,.21.02.31.03.24.03.5.03.74.03.05,0,.1,0,.15,0h.05c.15,0,.3,0,.45-.02.11,0,.23,0,.34-.02.14-.02.28-.03.42-.05.11-.02.22-.03.33-.04.13-.03.26-.06.39-.08.11-.03.22-.05.33-.08.02,0,.03,0,.04,0v.66h.03c.03.66.11,1.3.25,1.94h-.02l.1.39h0s0,.05,0,.05c.05.19.11.4.17.58-.68.58-1.52,1.07-2.46,1.43Zm2.62-8.87l-.08.2s0,0,0,.02l-.26.77h.03c-.04.13-.08.29-.11.44,0,.05-.03.09-.03.14-.08.4-.14.82-.19,1.24,0,.04-.02.08-.02.11-.08.03-.16.06-.24.08-.1.03-.21.06-.31.08-.13.03-.28.06-.41.08-.11.02-.22.04-.33.05-.14.02-.29.03-.43.04-.12,0-.24.02-.35.03-.14,0-.29,0-.44,0-.13,0-.26,0-.4,0-.13,0-.27-.02-.4-.03-.15,0-.29-.02-.45-.04-.13-.02-.25-.04-.38-.06-.17-.03-.33-.05-.5-.08-.13-.03-.26-.06-.39-.09-.16-.04-.32-.08-.48-.12-.29-.08-.57-.17-.86-.27l-.17-.06c-.08-.03-.16-.05-.24-.09-4.1-1.59-6.7-4.83-5.77-7.21.43-1.11,1.59-1.88,3.26-2.17.47-.08.96-.12,1.47-.12,1.39,0,2.9.29,4.38.87,2.31.9,4.26,2.38,5.24,4-.02.03-.03.07-.05.1-.23.33-.44.67-.62,1.03-.02.04-.04.09-.06.13-.16.31-.29.64-.42.97Zm14.64,9.29c-.99,1.63-2.44,2.87-4.13,3.5l-.16.1-.03.06c-.98,1.09-1.8,2.11-2.2,2.62-.35-.57-1-1.34-1.99-2.31-.15-.16-.31-.32-.48-.47l-.13-.09c-1.59-.63-2.94-1.8-3.93-3.43.09-.02.19-.04.28-.07h.02s.09-.02.13-.03c3.71-.79,8.51-.79,12.2,0,.06,0,.11.02.15.03.1.02.2.04.3.07,0,0,0,.02-.02.03Zm.95-2.1c-.14.46-.32.9-.52,1.31-.19-.05-.37-.09-.56-.13l-.12-.02c-3.82-.82-8.71-.82-12.58,0h-.09c-.19.05-.38.09-.56.14-.18-.35-.32-.7-.45-1.06-.05-.14-.08-.29-.13-.44.14-.04.28-.08.43-.12.15-.05.31-.08.52-.13.08-.03.15-.04.24-.06l.11-.03s.09-.02.13-.03c3.71-.79,8.51-.79,12.2,0,.06,0,.11.02.16.03.18.03.35.08.54.13.25.06.5.13.74.2-.02.06-.03.12-.05.18Zm.43-1.93c0,.05-.02.09-.02.14-.04.27-.09.52-.15.78-.24-.08-.5-.13-.75-.19-.19-.06-.4-.11-.61-.15l-.11-.02c-1.91-.4-4.08-.62-6.28-.62s-4.37.22-6.3.63l-.24.04c-.1.03-.2.05-.25.07-.19.03-.39.08-.55.13-.13.03-.27.08-.4.11-.06-.28-.13-.56-.16-.86,0-.03,0-.05-.02-.08-.03-.33-.05-.67-.06-1.03.05,0,.11-.03.16-.04.5-.16,1.03-.29,1.57-.41.03,0,.05,0,.08-.02h.05c1.85-.4,3.96-.61,6.11-.61,1.99,0,3.86.17,5.57.5.16.03.31.07.52.11.06,0,.11.02.15.03.54.12,1.06.25,1.56.41.06.02.12.03.17.05,0,.34-.03.7-.07,1.04Zm-.11-1.98c-.46-.13-.93-.26-1.41-.36l-.19-.03c-.14-.03-.29-.05-.45-.09-1.77-.34-3.71-.51-5.75-.51-2.2,0-4.37.22-6.22.61h-.02l-.15.03c-.49.1-.95.23-1.4.36-.06.02-.13.03-.18.04v-.07c.03-.47.09-.93.19-1.38.03-.15.08-.29.11-.43.07-.26.13-.51.21-.76.4-.11.8-.22,1.21-.3l.15-.03.34-.08c3.68-.72,8.28-.69,11.83.07l.07.02s.07,0,.11.02c.41.08.81.19,1.21.3.08.24.14.48.2.72.03.14.08.28.11.42.08.36.13.74.16,1.13,0,.07.03.13.03.19,0,.05,0,.11.02.17-.06-.02-.12-.03-.18-.04Zm9.24,3.79c-.32.83-1.17,1.42-2.39,1.65-1.29.25-2.82.07-4.3-.51-.71-.27-1.38-.63-1.98-1.05.03-.11.06-.21.08-.32l.02-.06s0-.05.02-.08l.07-.27h-.02c.15-.63.24-1.29.26-1.95h.03s0-.74,0-.74c.02,0,.03,0,.05.02.11.03.23.06.34.08.13.04.28.08.42.11.13.03.25.04.37.06.15.02.29.04.45.06.13.02.27.02.4.03.14,0,.29.02.45.03h.15c.08,0,.16,0,.24,0,.2,0,.4-.02.61-.03.13-.02.27-.03.4-.04.21-.02.42-.05.63-.08.13-.03.25-.04.38-.06.33-.07.66-.14.98-.23.07-.02.13-.04.19-.06.24-.08.49-.14.73-.23,1.3,1.2,1.83,2.6,1.4,3.68Zm-1.17-4.67h0c-.09.04-.18.08-.28.11-.31.12-.63.22-.94.3-.11.03-.21.05-.31.08-.21.06-.42.11-.63.15-.13.03-.24.04-.36.06-.19.03-.39.07-.57.09-.13.02-.24.02-.37.03-.19.02-.36.03-.55.04h-.36c-.17,0-.34,0-.51,0-.12,0-.24-.03-.35-.03-.16-.02-.32-.03-.47-.05-.13-.02-.24-.04-.35-.07-.14-.03-.29-.06-.42-.09-.12-.03-.23-.07-.34-.11-.08-.03-.18-.06-.26-.09-.03-.28-.08-.55-.13-.82-.03-.15-.03-.3-.07-.45-.04-.2-.1-.39-.16-.58l.04.02-.26-.77h0s-.08-.21-.08-.21h0c-.12-.34-.25-.66-.41-.98-.07-.14-.15-.27-.23-.4-.11-.2-.22-.41-.34-.61.95-1.72,2.94-3.29,5.38-4.23,2.02-.79,4.11-1.06,5.85-.76,1.67.29,2.83,1.06,3.26,2.17.93,2.38-1.66,5.62-5.76,7.21Z"/></svg>