<?xml version="1.0" encoding="UTF-8"?><svg id="Layer_1" xmlns="http://www.w3.org/2000/svg" width="74" height="65" viewBox="0 0 74 65"><path d="m10.07,22.39c-.12-.11-.26-.15-.41-.14-.15.01-.28.07-.39.19-.12.14-.17.27-.14.4.03.13.08.28.17.43.18.34.26.67.22.98-.03.32-.18.62-.43.9-.23.26-.49.43-.79.51-.29.08-.61.07-.95-.05-.34-.12-.7-.34-1.07-.67-.56-.5-.89-1-.98-1.51s.04-.96.4-1.36c.22-.25.47-.41.74-.48.27-.07.58-.06.93.03.21.05.38.07.49.06.11,0,.23-.08.34-.2.1-.11.14-.24.13-.4-.02-.15-.08-.28-.19-.38-.2-.18-.49-.29-.86-.33-.37-.04-.77.02-1.2.19-.43.17-.81.44-1.16.83-.28.32-.5.67-.63,1.05-.14.38-.19.78-.16,1.18.03.4.15.8.35,1.18.21.38.5.75.89,1.1.24.21.48.39.74.53.25.14.51.25.78.33.27.08.53.12.8.13.29,0,.57-.03.82-.11.25-.08.5-.2.73-.37.23-.17.46-.38.69-.63.3-.33.51-.68.62-1.02.12-.35.16-.68.13-.99-.03-.32-.1-.59-.21-.82-.11-.23-.24-.42-.4-.56Z"/><path d="m15.8,19.23c-.21-.11-.46-.22-.76-.33-.3-.11-.6-.19-.92-.25-.32-.06-.6-.06-.86-.01.36-.44.55-.85.58-1.25s-.1-.78-.4-1.15c-.15-.18-.32-.33-.51-.45-.19-.11-.4-.18-.62-.21-.22-.03-.44-.01-.65.05-.18.04-.36.12-.54.23-.18.11-.38.26-.61.44l-1.66,1.32c-.22.18-.34.35-.36.53-.02.18.06.37.23.59l3.09,3.88c.16.2.33.32.5.36.17.03.34-.01.5-.14.15-.12.23-.27.25-.44.01-.18-.07-.37-.23-.58l-1.29-1.62.36-.28c.18-.14.35-.24.51-.29.16-.05.35-.05.57-.01.22.04.5.12.85.26l.95.36c.22.08.4.14.52.18.12.04.24.05.36.04.12,0,.24-.06.35-.15.1-.08.17-.16.21-.26.04-.1.06-.19.05-.29-.01-.1-.04-.18-.09-.25-.05-.06-.18-.15-.39-.27Zm-3.34-1.06c-.13.18-.32.36-.57.56l-.92.73-1.1-1.39.94-.75c.35-.28.61-.44.77-.49.17-.05.33-.05.49,0,.16.05.29.14.4.28.14.18.21.35.2.53,0,.17-.08.35-.21.52Z"/><path d="m20.45,14.52l-1.49-2.71c-.13-.23-.28-.38-.45-.43-.17-.06-.34-.04-.51.06-.17.1-.28.23-.32.4-.04.17,0,.37.13.61l1.54,2.8c.27.48.37.89.32,1.23-.05.34-.3.63-.75.88-.32.18-.61.26-.85.24-.24-.02-.46-.11-.65-.29-.19-.17-.37-.42-.54-.73l-1.53-2.77c-.13-.23-.27-.38-.44-.43-.17-.06-.34-.04-.52.06-.17.09-.27.23-.31.4-.04.17,0,.37.13.61l1.49,2.71c.23.43.48.77.74,1.02.26.26.54.43.85.52.3.09.64.09,1.01.01.36-.08.76-.24,1.2-.48.36-.2.66-.42.88-.66.22-.24.39-.51.49-.81.12-.35.14-.7.06-1.05-.08-.34-.24-.73-.48-1.18Z"/><path d="m27.06,14c-.13-.06-.29-.05-.49.02l-2.87,1-.6-1.73,2.56-.89c.19-.07.32-.16.38-.28.06-.12.07-.25.02-.39s-.13-.23-.25-.29c-.12-.05-.28-.05-.47.02l-2.56.89-.52-1.49,2.78-.96c.2-.07.33-.16.39-.28.07-.12.07-.25.02-.4-.05-.14-.14-.24-.26-.29-.13-.05-.29-.05-.48.02l-3.26,1.13c-.17.06-.31.14-.4.23-.09.09-.15.2-.16.33-.01.13,0,.28.07.46l1.59,4.58c.09.27.22.44.38.52.16.08.37.07.64-.02l3.35-1.16c.19-.07.32-.16.39-.29.07-.12.08-.26.03-.4-.05-.15-.14-.25-.27-.31Z"/><path d="m32.46,12.93c-.13-.08-.3-.1-.51-.06l-2.6.48-.85-4.61c-.05-.26-.14-.45-.29-.55-.14-.11-.31-.14-.5-.11-.19.03-.33.13-.42.28-.09.15-.12.36-.07.62l.9,4.88c.05.28.15.47.29.57.15.1.36.13.64.07l3.1-.57c.21-.04.36-.12.45-.23s.12-.25.09-.41c-.03-.15-.11-.27-.24-.35Z"/><path d="m36.11,7.17l-4.14.28c-.21.01-.37.07-.48.18-.11.1-.15.24-.14.41.01.16.07.29.19.38.11.09.28.13.5.11l1.42-.1.32,4.67c.02.27.09.46.22.58.13.12.29.18.48.17.19-.01.34-.09.45-.23.11-.14.16-.34.14-.61l-.31-4.67,1.42-.1c.22-.01.39-.07.49-.18.1-.11.15-.24.14-.4-.01-.16-.07-.29-.19-.38-.12-.09-.29-.13-.51-.12Z"/><path d="m42.38,7.4c-.11,0-.2,0-.27.04-.08.03-.15.08-.21.15-.07.07-.13.14-.18.22-.06.08-.13.17-.21.29l-1.37,1.85-1.05-2.04c-.16-.32-.28-.53-.37-.64-.08-.11-.22-.17-.39-.18-.17-.01-.32.03-.44.13-.12.1-.19.22-.2.37,0,.09.01.2.06.33.05.13.13.31.25.54l1.38,2.55-.16,2.04c-.02.27.02.47.13.61.11.14.26.22.45.23.19.02.35-.04.48-.16.13-.12.21-.32.23-.58l.16-2.04,1.8-2.34c.15-.19.26-.34.32-.45s.1-.22.11-.34c.01-.14-.03-.27-.14-.38-.1-.11-.23-.18-.4-.19Z"/><path d="m51.81,12.68l-2.02-.72.55-1.55,2.42.86c.2.07.36.08.48.03.13-.05.22-.15.27-.3.05-.14.04-.27-.02-.39-.06-.12-.19-.22-.39-.29l-2.9-1.03c-.17-.06-.33-.09-.46-.08-.13.01-.24.06-.33.16-.09.09-.17.23-.23.4l-1.67,4.67c-.09.25-.1.46-.03.62.07.17.2.28.38.35.18.06.35.06.51-.03.16-.08.28-.25.37-.5l.71-2,2.02.72c.18.07.34.07.46.02.12-.05.21-.14.26-.29.05-.14.04-.27-.02-.39-.06-.12-.19-.21-.37-.28Z"/><path d="m58.13,16.12c.38-.12.68-.39.91-.81.11-.21.18-.42.21-.64.03-.22.01-.44-.05-.65-.06-.21-.16-.41-.29-.58-.11-.15-.25-.28-.42-.4s-.38-.25-.64-.39l-1.86-1.02c-.25-.13-.46-.18-.63-.13-.17.05-.32.2-.46.45l-2.38,4.35c-.13.23-.17.43-.13.6.03.17.14.31.33.41.17.09.34.11.51.06.17-.06.32-.2.45-.44l.99-1.82.4.22c.2.11.36.23.46.36.1.13.18.3.23.52.05.22.08.51.09.88l.04,1.01c0,.24.02.42.03.55.01.13.05.24.1.35s.15.2.27.27c.11.06.22.09.32.09.11,0,.2-.02.29-.07.09-.05.15-.11.19-.18.04-.07.07-.23.09-.46s.03-.51.01-.83c-.02-.32-.06-.63-.13-.94-.07-.31-.18-.58-.32-.8.54.16,1,.18,1.37.05Zm-1.26-.98c-.21-.06-.46-.16-.73-.31l-1.03-.56.85-1.55,1.06.58c.39.22.64.39.74.52.11.14.17.29.19.45.01.16-.02.32-.11.48-.11.2-.25.33-.41.39-.16.06-.35.06-.56,0Z"/><path d="m59.25,19.95l1.13-1.45,2.13,1.67c.16.12.31.18.44.17.13-.01.24-.08.33-.19.09-.12.12-.24.1-.37-.02-.13-.11-.26-.27-.38l-2.13-1.67.97-1.25,2.32,1.81c.16.13.31.19.45.18.14-.01.25-.08.35-.2.09-.12.13-.24.1-.38-.02-.13-.12-.27-.28-.39l-2.72-2.12c-.15-.11-.28-.19-.41-.22-.13-.03-.25-.02-.37.04-.12.06-.23.16-.35.31l-2.98,3.82c-.17.22-.25.42-.23.6.02.18.14.35.37.53l2.8,2.18c.16.13.31.18.45.17.14-.01.26-.08.35-.2.1-.12.13-.26.11-.39-.02-.14-.12-.27-.28-.4l-2.4-1.87Z"/><path d="m69.67,22.27l-2.35-2.52c-.13-.14-.25-.23-.37-.28-.12-.05-.24-.05-.37-.01-.13.04-.26.12-.39.25l-3.54,3.31c-.2.19-.31.38-.32.55,0,.18.09.37.28.58l2.42,2.59c.14.15.28.23.42.24.14.01.27-.04.38-.14.12-.11.17-.23.17-.37,0-.14-.07-.29-.21-.44l-2.08-2.22,1.34-1.25,1.85,1.98c.14.15.27.22.41.23s.25-.04.36-.14c.11-.1.16-.22.16-.35,0-.13-.07-.27-.21-.42l-1.85-1.98,1.16-1.08,2.01,2.15c.14.15.28.23.42.24.14.01.26-.04.37-.14.11-.1.16-.22.16-.36,0-.14-.07-.28-.22-.43Z"/><path d="m45.1,38.49c-.07-.91-.94-1.84-1.61-2.44,2.79-1.78,7.59-8.4,7.83-11.86.12-1.75-.89-2.32-1.51-2.5-1.8-.53-4,.99-6.16,3.15.1-1.42.07-3.29-.71-4.22-.34-.41-.8-.62-1.32-.62-3.6,0-6.67,11-7.45,14.04-3.03,1.16-8.19,3.7-10.45,6.61-1.05,1.35-1.41,2.67-1.09,3.94,2.18,8.5,12.46,7.72,14.62,7.46l3.29,5.49,1-.6-3.1-5.16c1.68-.53,5.51-2.19,5.51-6.17,0-.32-.26-.58-.58-.58s-.58.26-.58.58c0,4.08-5.03,5.18-5.34,5.24-.48.08-11.54,1.88-13.7-6.54-.22-.85.04-1.79.77-2.79,2.75-3.75,11.05-6.92,11.86-6.97.6,0,1.12-.59,3.32-3.33,2.73-3.42,7.3-9.13,9.78-8.4.35.1.75.35.68,1.31-.26,3.68-6.37,11-7.85,11.22l-1.41.21,1.16.84c.76.55,1.89,1.64,1.89,2.23,0,.43,0,1.75,7.56,1.75v-1.16c-2.68,0-5.82-.28-6.4-.7Zm-6.31-8.01c-1,1.25-2.14,2.67-2.51,2.9-.17.02-.44.09-.79.19,1.49-5.49,4.17-12.42,6.13-12.42.18,0,.31.06.43.21.67.8.52,3.36.26,4.9-1.24,1.38-2.44,2.88-3.51,4.22Z"/><path d="m30.27,40.65v1.75c0,.48.39.87.87.87s.87-.39.87-.87v-1.75c0-.48-.39-.87-.87-.87s-.87.39-.87.87Z"/></svg>