<svg width="50" height="50" viewBox="0 0 50 50" fill="none" xmlns="http://www.w3.org/2000/svg">
<path d="M39.7473 0H10.2436C4.59462 0 0 4.59462 0 10.2436V39.7473C0 45.3963 4.59462 49.9909 10.2436 49.9909H26.4906V30.7035H20.1463V23.3912H26.4906L26.5952 16.9833C26.5952 14.2338 28.4266 8.73932 33.9211 8.28486H41.7061V14.6973H36.6706C36.6706 14.6973 33.9211 14.6973 33.9211 17.4468V23.4003H41.247L40.329 30.7262H33.9166L34.062 50H39.7382C45.3872 50 49.9818 45.4054 49.9818 39.7564V10.2436C49.9818 4.59462 45.3872 0 39.7382 0H39.7473Z" fill="white"/>
</svg>
