<?xml version="1.0" encoding="utf-8"?>
<!-- Generator: Adobe Illustrator 27.3.1, SVG Export Plug-In . SVG Version: 6.00 Build 0)  -->
<svg version="1.1" id="Layer_1" xmlns="http://www.w3.org/2000/svg" xmlns:xlink="http://www.w3.org/1999/xlink" x="0px" y="0px"
	 viewBox="0 0 119.2 119.1" style="enable-background:new 0 0 119.2 119.1;" xml:space="preserve">
<style type="text/css">
	.st0{fill:#2B73CA;}
</style>
<path class="st0" d="M93.1,65.8H71.8V53.3h21.3c14.4-0.3,25.8-11.8,26.1-26.1C119.5,12.5,107.8,0.3,93.1,0H66.5v47.9H53.8V0H26.2
	C11.5,0.3-0.3,12.5,0,27.2C0.1,34.3,3,41,8.2,45.9c5.1,4.9,11.9,7.6,19,7.4h21.2v12.6H26.2C11.5,66.1-0.3,78.3,0,93
	c0.3,14.5,12.2,26.1,26.6,26.1h27.2V71.2h12.6v47.9h26.7c14.4-0.3,25.8-11.8,26.1-26.1C119.5,78.3,107.8,66.1,93.1,65.8L93.1,65.8z
	 M66.4,53.3v12.5H53.8V53.3H66.4z M71.8,5.4H93c11.7,0,21.2,9.5,21.2,21.2S104.7,47.8,93,47.8H71.8C71.8,47.8,71.8,5.4,71.8,5.4z
	 M71.8,71.2H93c11.7,0,21.2,9.5,21.2,21.2s-9.5,21.2-21.2,21.2H71.8C71.8,113.6,71.8,71.2,71.8,71.2z M48.4,5.4v42.5H27.2
	C15.5,47.9,6,38.4,6,26.7S15.5,5.4,27.2,5.4H48.4z M48.4,71.2v42.5H27.2c-5.7,0-11-2.2-15-6.2S6,98.1,6,92.5s2.2-11,6.2-15
	s9.3-6.2,15-6.2h21.2C48.4,71.3,48.4,71.2,48.4,71.2z"/>
</svg>
