<?xml version="1.0" encoding="UTF-8"?><svg id="Layer_1" xmlns="http://www.w3.org/2000/svg" width="65" height="65" viewBox="0 0 65 65"><path d="m45.62,6.98c-1.23,0-11.07.06-13.12,1.81-2.05-1.75-11.89-1.81-13.12-1.81-1.38,0-13.5.07-13.5,2.5v34l.99.07c.4-.64,5.09-1.57,12.51-1.57s12.11.93,12.5,1.5h.24l.98.07c.23-.35,1.74-.79,4.29-1.11-.04-.2-.08-.4-.12-.59-.03-.13-.06-.26-.08-.39-1.64.2-3.14.51-4.07.95l-.02-32.86c.41-.64,5.1-1.57,12.52-1.57s12,.91,12.5,1.55v32.88c-.44-.21-1-.38-1.64-.53.03.32.06.66.08,1.01.9.2,1.44.41,1.56.59h1V9.48c0-2.43-12.12-2.5-13.5-2.5Zm-13.74,35.43c-2.93-1.38-11.36-1.43-12.5-1.43s-9.57.05-12.5,1.43V9.54c.39-.64,5.08-1.57,12.5-1.57s12,.91,12.5,1.55v32.88Z"/><path d="m11.77,18.01l-.32-.95c.13-.04,3.13-1.03,8.16-1.03s7.62.99,7.73,1.03l-.36.93s-2.54-.97-7.36-.97-7.81.96-7.84.97Z"/><path d="m11.77,23.5l-.32-.95c.13-.04,3.13-1.03,8.16-1.03s7.62.99,7.73,1.03l-.36.93s-2.54-.97-7.36-.97-7.81.96-7.84.97Z"/><path d="m11.77,28.99l-.32-.95c.13-.04,3.13-1.03,8.16-1.03s7.62.99,7.73,1.03l-.36.93s-2.54-.97-7.36-.97-7.81.96-7.84.97Z"/><path d="m38.01,18.01l-.32-.95c.13-.04,3.13-1.03,8.16-1.03s7.62.99,7.73,1.03l-.36.93s-2.54-.97-7.36-.97-7.81.96-7.84.97Z"/><path d="m38.01,23.5l-.32-.95c.13-.04,3.13-1.03,8.16-1.03s7.62.99,7.73,1.03l-.36.93s-2.54-.97-7.36-.97-7.81.96-7.84.97Z"/><path d="m42.62,27.15v1.01c-2.91.27-4.59.81-4.61.82l-.32-.95c.09-.03,1.86-.61,4.93-.88Z"/><path d="m53.58,28.04l-.37.93s-2.27-.86-6.59-.95v-1c4.52.09,6.86.98,6.96,1.02Z"/><path d="m38.58,46.52c-2.48.35-3.79.81-3.97,1.11l-.96-.06h-.03c0-.06-.02-1.5-1-1.5s-1,1.44-1,1.5h-1.24s.01.05.01.06c-.3-.53-4.18-1.56-11.76-1.56s-11.45,1.03-11.76,1.56l-.99-.06c0-2.43,11.45-2.5,12.75-2.5,1.12,0,9.71.05,12.12,1.6.22-.78.75-1.6,1.87-1.6,1.06,0,1.59.74,1.83,1.48.83-.45,2.21-.76,3.74-.98.12.33.25.65.39.95Z"/><path d="m59.12,47.57h-1c-.11-.16-.67-.41-1.7-.64.05-.33.09-.66.13-.98,1.51.36,2.57.88,2.57,1.62Z"/><path d="m42.9,42.01c.16.1.37.09.52-.01-.18,0-.35.01-.52.01Zm0,0c.16.1.37.09.52-.01-.18,0-.35.01-.52.01Zm0,0c.16.1.37.09.52-.01-.18,0-.35.01-.52.01Zm0,0c.16.1.37.09.52-.01-.18,0-.35.01-.52.01Zm0,0c.16.1.37.09.52-.01-.18,0-.35.01-.52.01Zm0,0c.16.1.37.09.52-.01-.18,0-.35.01-.52.01Z"/><path d="m56.56,42.88c-.02-.35-.05-.69-.08-1.01-.25-2.18-.73-3.59-.86-3.95-.05-1.06-.93-1.9-2-1.9-.41,0-.79.12-1.11.34-.28-.78-1.02-1.34-1.89-1.34-.41,0-.79.12-1.11.34-.28-.78-1.02-1.34-1.89-1.34-.36,0-.71.1-1,.27v-7.27c0-1.2-1.06-2.16-2.29-1.98-1.01.15-1.7,1.09-1.71,2.11v12.72l-1.05-1.57h0c-.81-1.62-1.55-2.46-2.39-2.72-.51-.16-1.04-.1-1.57.19-1.39.74-1.14,2.22-.42,5.68.02.13.05.26.08.39.04.19.08.39.12.59.08.37.16.77.24,1.19.14.69.33,1.34.56,1.95.12.33.25.65.39.95,1.32,2.85,3.35,4.68,4.02,5.23.02.01.02.02.02.04v5.16c0,.59.48,1.07,1.07,1.07h10.01c.51,0,.92-.41.92-.92v-3.81c.12-.28.45-1.12.82-2.27h.18v-.59c.37-1.24.64-2.41.8-3.5.05-.33.09-.66.13-.98.05-.5.07-.97.07-1.43,0-.58-.02-1.13-.06-1.64Zm-1.12,3.84c-.18,1.24-.48,2.43-.76,3.37l-.09.28c-.45,1.5-.9,2.56-.93,2.63v.02l-.04,3.95s-.02.05-.05.05h-9.89s-.06-.02-.06-.06v-5.69l-.2-.15s-2.31-1.76-3.78-4.73c-.16-.3-.3-.62-.42-.95-.26-.63-.47-1.3-.61-2.02-.08-.39-.15-.76-.23-1.11-.04-.23-.09-.46-.13-.67-.02-.11-.04-.21-.07-.31-.67-3.3-.82-4.29-.09-4.68.29-.16.54-.2.79-.12.55.17,1.13.9,1.82,2.26t.01.01l1.49,2.25.55.82c.04.06.09.11.15.14.17,0,.34-.01.52-.01.12-.09.2-.22.2-.4v-14.58c0-.55.45-1,1-1s.99.44,1,.99v11.72c0,.27.22.5.5.5s.5-.23.5-.5v-2.71c0-.55.45-1,1-1s1,.45,1,1v3.5c0,.28.22.5.5.5s.5-.22.5-.5v-2.5c0-.55.45-1,1-1s1,.45,1,1v2.5c0,.28.22.5.5.5s.5-.22.5-.5v-1.5c0-.55.45-1,1-1s1,.45,1,1l.04.19s.5,1.29.78,3.44c.04.32.08.67.1,1.03.05.57.08,1.18.08,1.84,0,.4-.02.81-.06,1.22-.03.33-.07.65-.12.98Z"/></svg>