<?xml version="1.0" encoding="UTF-8"?><svg id="Layer_1" xmlns="http://www.w3.org/2000/svg" width="112" height="112" viewBox="0 0 112 112"><defs><style>.cls-1{fill:#2b73c9;}</style></defs><path class="cls-1" d="m50.18,16.41l-1.77-14.17,1.65-.21,1.77,14.17-1.65.21Z"/><path class="cls-1" d="m64.44,16.78l.95-6.86c.12-.86.01-1.54-.32-2.02-.33-.48-.92-.78-1.76-.9-1.11-.15-1.96.03-2.56.56-.6.53-1,1.48-1.19,2.86l-.77,5.56-1.61-.22,1.48-10.6,1.31.18.06,1.49h.08c.4-.47.92-.81,1.55-1.01.63-.2,1.31-.26,2.04-.15,1.28.18,2.19.62,2.75,1.32s.74,1.74.56,3.09l-.96,6.92-1.61-.22Z"/><path class="cls-1" d="m78.13,19.02c-.43.9-1.1,1.43-2.01,1.59-.9.16-1.96-.05-3.17-.63-1.28-.62-2.18-1.3-2.7-2.05l.65-1.35c.35.46.76.88,1.22,1.27.47.39.94.71,1.44.94.76.37,1.41.53,1.93.49.53-.04.91-.32,1.15-.81.18-.38.17-.77-.02-1.2-.2-.42-.68-1.05-1.45-1.87-.74-.77-1.23-1.37-1.49-1.8-.26-.43-.4-.85-.43-1.26-.03-.41.06-.83.27-1.27.38-.79,1-1.25,1.86-1.4.86-.15,1.84.05,2.96.59,1.04.5,1.95,1.2,2.74,2.1l-1.09.94c-.77-.87-1.55-1.49-2.34-1.87-.69-.33-1.27-.48-1.72-.43s-.78.26-.96.64c-.12.26-.17.51-.12.75.04.25.17.52.39.83.21.31.66.82,1.34,1.53.94.97,1.51,1.76,1.71,2.38s.14,1.24-.17,1.88Z"/><path class="cls-1" d="m83.83,27.54c-.51-.48-.88-1.01-1.12-1.59s-.32-1.2-.23-1.86l-.08-.08c-.37.51-.75.96-1.14,1.37l-3.03,3.19-1.17-1.12,10.68-11.24.96.91-.85,1.22.06.05c.71-.14,1.35-.11,1.93.08s1.13.54,1.65,1.03c1.03.98,1.49,2.08,1.38,3.32-.11,1.23-.77,2.49-1.97,3.76-1.21,1.27-2.44,1.99-3.68,2.16-1.24.17-2.36-.23-3.37-1.19Zm6.52-7.2c-.79-.75-1.57-1.08-2.35-.98s-1.62.63-2.54,1.58l-.25.26c-1.04,1.09-1.6,2.04-1.68,2.86-.08.81.28,1.6,1.08,2.37.67.64,1.45.86,2.35.68s1.8-.75,2.7-1.7c.92-.97,1.44-1.89,1.55-2.77.11-.88-.18-1.64-.87-2.3Z"/><path class="cls-1" d="m90.47,35.69l-.85-1.38,9.1-5.63.85,1.38-9.1,5.63Zm10.65-8.65c.32-.19.59-.26.84-.2.24.06.44.21.58.45.14.22.18.46.13.71-.05.25-.23.48-.54.67-.31.19-.59.25-.84.19-.25-.07-.45-.21-.58-.43-.14-.23-.19-.47-.13-.72.06-.25.24-.47.55-.66Z"/><path class="cls-1" d="m104.81,41.31c.16.45.27.86.32,1.24l-1.49.29c-.06-.45-.14-.83-.25-1.15-.29-.82-.87-1.4-1.74-1.74-.87-.34-1.8-.34-2.78.01l-5.41,1.92-.54-1.53,10.08-3.59.45,1.26-1.81.84.03.07c.79.14,1.46.41,2,.81.54.4.93.92,1.15,1.55Z"/><path class="cls-1" d="m96.09,56.32l1.5-.41v-.08c-.71-.49-1.19-1-1.46-1.51-.27-.52-.43-1.17-.47-1.96-.06-1.06.16-1.91.67-2.54.51-.63,1.27-.98,2.28-1.04,2.16-.13,3.39,1.53,3.7,4.98l.17,1.81.66-.04c.84-.05,1.45-.27,1.82-.65.38-.38.54-.97.5-1.77-.05-.89-.39-1.88-1-2.97l1.21-.57c.32.51.58,1.07.78,1.69.2.62.32,1.24.36,1.87.08,1.27-.15,2.23-.68,2.88-.53.65-1.42,1.01-2.67,1.08l-7.29.43-.07-1.2Zm.92-3.72c.06,1.01.38,1.78.97,2.32s1.38.78,2.37.73l.96-.06-.16-1.61c-.12-1.28-.38-2.2-.77-2.75-.39-.55-.96-.8-1.7-.75-.58.04-1.02.24-1.3.61-.28.37-.41.88-.37,1.51Z"/><path class="cls-1" d="m95.92,66.12c-.06.28-.1.56-.11.83-.01.27-.01.49,0,.65l-1.21-.26c-.05-.19-.06-.46-.05-.8.02-.35.05-.65.11-.92.43-2.03,1.71-2.81,3.84-2.37l6.23,1.31.32-1.5.76.16.34,1.64,2.1,1.14-.19.92-2.43-.51-.64,3.04-1.23-.26.64-3.04-6.16-1.3c-.63-.13-1.15-.08-1.55.14-.4.23-.66.6-.77,1.13Z"/><path class="cls-1" d="m92.42,72.56l.64-1.49,9.83,4.24-.64,1.49-9.83-4.24Zm13.19,3.77c.34.15.55.34.64.57.09.24.08.48-.03.73-.1.24-.27.41-.51.51-.24.1-.52.08-.86-.06-.33-.14-.55-.34-.64-.58-.09-.24-.08-.49.02-.73.11-.25.28-.43.52-.52.24-.1.52-.07.86.07Z"/><path class="cls-1" d="m88.71,87.8c-1.37-1.08-2.18-2.26-2.41-3.56-.23-1.3.13-2.55,1.09-3.77.59-.75,1.29-1.28,2.1-1.59.81-.31,1.67-.36,2.58-.16.91.2,1.81.65,2.7,1.34,1.37,1.07,2.18,2.26,2.41,3.54.23,1.29-.13,2.54-1.09,3.76-.92,1.18-2.05,1.81-3.38,1.89-1.33.08-2.66-.4-4-1.45Zm5.02-6.42c-1.08-.84-2.07-1.27-2.97-1.28-.9-.01-1.68.4-2.33,1.24-.65.84-.87,1.69-.65,2.56s.88,1.73,1.96,2.58c1.07.84,2.06,1.26,2.95,1.26.9,0,1.67-.42,2.34-1.27.65-.84.87-1.68.66-2.54-.22-.85-.87-1.71-1.95-2.56Z"/><path class="cls-1" d="m75.06,91.29l3.73,5.83c.47.73.99,1.18,1.55,1.33.57.15,1.21,0,1.92-.46.94-.6,1.47-1.3,1.58-2.09.11-.79-.21-1.77-.96-2.95l-3.02-4.73,1.37-.87,5.76,9.02-1.11.71-1.01-1.09-.07.04c0,.62-.17,1.22-.52,1.78s-.83,1.05-1.45,1.44c-1.09.69-2.07.95-2.95.78-.88-.17-1.69-.84-2.43-1.99l-3.76-5.88,1.37-.87Z"/><path class="cls-1" d="m61.78,95.59l1.76,14.17-1.65.2-1.76-14.17,1.65-.2Z"/><path class="cls-1" d="m47.52,95.21l-.96,6.86c-.12.86-.01,1.54.32,2.02.33.48.92.78,1.76.9,1.11.16,1.96-.03,2.56-.56s1-1.48,1.19-2.86l.78-5.56,1.61.22-1.48,10.6-1.31-.18-.06-1.49h-.08c-.4.47-.92.81-1.55,1.01-.63.2-1.31.25-2.04.15-1.28-.18-2.19-.62-2.75-1.33-.56-.71-.74-1.74-.55-3.09l.97-6.92,1.61.22Z"/><path class="cls-1" d="m33.86,92.98c.43-.9,1.1-1.43,2.01-1.59.9-.16,1.96.05,3.17.63,1.28.62,2.18,1.3,2.7,2.05l-.65,1.35c-.35-.46-.76-.88-1.22-1.27-.47-.39-.94-.71-1.44-.94-.76-.37-1.41-.53-1.93-.49-.53.04-.91.32-1.15.81-.18.38-.17.77.02,1.2.2.42.68,1.05,1.45,1.87.74.77,1.23,1.37,1.49,1.8.26.43.4.85.43,1.26.03.41-.06.83-.27,1.27-.38.79-1,1.25-1.86,1.4-.86.15-1.84-.05-2.96-.59-1.04-.5-1.95-1.2-2.74-2.1l1.09-.94c.77.87,1.55,1.49,2.34,1.87.69.33,1.27.48,1.72.43s.78-.26.96-.64c.12-.26.17-.51.12-.75-.04-.25-.17-.52-.39-.83-.21-.31-.66-.82-1.34-1.53-.94-.97-1.51-1.76-1.71-2.38s-.14-1.24.17-1.88Z"/><path class="cls-1" d="m28.16,84.46c.51.48.88,1.01,1.12,1.59s.32,1.2.23,1.86l.08.08c.37-.51.75-.96,1.14-1.37l3.03-3.19,1.17,1.12-10.68,11.24-.96-.91.85-1.22-.06-.05c-.71.14-1.35.11-1.93-.08s-1.13-.54-1.65-1.03c-1.03-.98-1.49-2.08-1.38-3.32.11-1.23.77-2.49,1.97-3.76,1.21-1.27,2.44-1.99,3.68-2.16,1.24-.17,2.36.23,3.37,1.19Zm-6.52,7.2c.79.75,1.57,1.08,2.35.98s1.62-.63,2.54-1.58l.25-.26c1.04-1.09,1.6-2.04,1.68-2.86.08-.81-.28-1.6-1.08-2.37-.67-.64-1.45-.86-2.35-.68s-1.8.75-2.7,1.7c-.92.97-1.44,1.89-1.55,2.77-.11.88.18,1.64.87,2.3Z"/><path class="cls-1" d="m10.85,84.92c-.32.19-.59.26-.84.2-.24-.06-.44-.21-.58-.45-.14-.22-.18-.46-.13-.71s.23-.48.54-.67c.31-.19.59-.25.84-.19.25.07.45.21.58.43.14.23.19.47.13.72-.06.25-.24.47-.55.66Zm10.65-8.64l.85,1.38-9.11,5.62-.85-1.38,9.11-5.62Z"/><path class="cls-1" d="m7.18,70.65c-.16-.45-.26-.86-.32-1.24l1.49-.29c.06.45.14.83.25,1.15.29.82.87,1.4,1.74,1.74.87.34,1.8.34,2.78,0l5.41-1.92.54,1.53-10.09,3.58-.45-1.26,1.81-.84-.03-.07c-.79-.14-1.46-.41-2-.81-.54-.4-.93-.92-1.15-1.55Z"/><path class="cls-1" d="m15.91,55.64l-1.5.41v.08c.71.49,1.19,1,1.46,1.51.27.52.43,1.17.47,1.96.06,1.06-.16,1.91-.67,2.54-.51.63-1.27.98-2.28,1.04-2.16.13-3.39-1.53-3.7-4.98l-.16-1.81-.66.04c-.84.05-1.45.27-1.83.65-.38.38-.54.97-.5,1.77.05.89.38,1.88,1,2.97l-1.21.57c-.32-.51-.57-1.07-.77-1.69s-.32-1.24-.35-1.87c-.07-1.27.15-2.23.68-2.88.53-.65,1.42-1.01,2.67-1.08l7.29-.43.07,1.2Zm-.93,3.72c-.06-1.01-.38-1.78-.97-2.33-.59-.54-1.38-.79-2.37-.73l-.97.06.16,1.61c.12,1.28.38,2.2.76,2.75.39.55.96.8,1.7.76.58-.03,1.02-.24,1.3-.61.29-.37.41-.88.37-1.51Z"/><path class="cls-1" d="m16.08,45.85c.06-.28.1-.56.11-.83s.01-.49,0-.65l1.21.26c.05.19.06.46.04.8-.02.35-.05.65-.11.92-.43,2.03-1.71,2.81-3.84,2.36l-6.23-1.32-.32,1.5-.76-.16-.34-1.64-2.09-1.14.19-.92,2.43.51.64-3.04,1.23.26-.64,3.04,6.16,1.3c.63.13,1.15.09,1.55-.14.4-.23.66-.6.77-1.13Z"/><path class="cls-1" d="m6.4,35.62c-.34-.15-.55-.34-.64-.57-.09-.24-.08-.48.03-.73.1-.24.27-.41.51-.51.24-.1.52-.08.86.06.33.14.55.34.64.58.09.24.08.49-.02.73-.11.25-.28.42-.52.52-.24.1-.52.07-.86-.07Zm13.19,3.78l-.64,1.49-9.83-4.24.64-1.49,9.83,4.24Z"/><path class="cls-1" d="m23.3,24.17c1.37,1.08,2.17,2.26,2.4,3.56.23,1.3-.13,2.55-1.09,3.77-.59.75-1.29,1.28-2.1,1.59-.81.31-1.67.36-2.58.16-.91-.2-1.81-.65-2.7-1.34-1.37-1.08-2.17-2.26-2.4-3.54s.14-2.54,1.09-3.76c.92-1.18,2.05-1.81,3.38-1.89s2.66.4,4,1.45Zm-5.03,6.42c1.08.84,2.06,1.27,2.97,1.28s1.68-.4,2.33-1.24.87-1.69.65-2.56c-.22-.87-.87-1.73-1.95-2.58-1.07-.84-2.05-1.26-2.95-1.26-.9,0-1.67.42-2.34,1.26-.65.84-.87,1.68-.66,2.54.22.85.87,1.71,1.95,2.56Z"/><path class="cls-1" d="m36.94,20.7l-3.73-5.83c-.47-.73-.99-1.18-1.55-1.33-.57-.15-1.21,0-1.92.46-.94.6-1.47,1.3-1.58,2.09-.11.79.21,1.77.96,2.95l3.02,4.73-1.37.87-5.76-9.02,1.11-.71,1.01,1.09.07-.04c0-.62.17-1.22.52-1.78s.83-1.05,1.45-1.44c1.09-.69,2.07-.95,2.95-.78.88.17,1.69.84,2.43,1.99l3.76,5.88-1.37.87Z"/></svg>