<?xml version="1.0" encoding="UTF-8"?><svg id="Layer_1" xmlns="http://www.w3.org/2000/svg" width="110" height="110" viewBox="0 0 110 110"><defs><style>.cls-1{fill:#311e02;}</style></defs><g id="Instagram"><path class="cls-1" d="m75.81,110h-41.63C15.34,110,0,94.66,0,75.81v-41.63C0,15.34,15.34,0,34.19,0h41.63C94.66,0,110,15.34,110,34.19v41.63c0,18.85-15.34,34.19-34.19,34.19ZM34.19,9.24c-13.75,0-24.94,11.19-24.94,24.94v41.63c0,13.75,11.19,24.94,24.94,24.94h41.63c13.75,0,24.94-11.19,24.94-24.94v-41.63c0-13.75-11.19-24.94-24.94-24.94h-41.63Z"/><path class="cls-1" d="m55.5,83.72c-15.56,0-28.21-12.66-28.21-28.21s12.66-28.21,28.21-28.21,28.21,12.66,28.21,28.21-12.66,28.21-28.21,28.21Zm0-46.35c-10,0-18.14,8.14-18.14,18.14s8.14,18.14,18.14,18.14,18.14-8.14,18.14-18.14-8.14-18.14-18.14-18.14Z"/><circle class="cls-1" cx="84.22" cy="25.78" r="6.55"/></g></svg>