<svg width="50" height="50" viewBox="0 0 50 50" fill="none" xmlns="http://www.w3.org/2000/svg">
<path d="M34.456 49.9955H15.535C6.97209 49.9955 0 43.0234 0 34.456V15.535C0 6.97209 6.97209 0 15.5395 0H34.4605C43.0234 0 49.9955 6.97209 49.9955 15.5395V34.4605C49.9955 43.0279 43.0234 50 34.456 50V49.9955ZM15.5395 4.19962C9.29006 4.19962 4.20416 9.28552 4.20416 15.535V34.456C4.20416 40.7054 9.29006 45.7913 15.5395 45.7913H34.4605C40.7099 45.7913 45.7958 40.7054 45.7958 34.456V15.535C45.7958 9.28552 40.7099 4.19962 34.4605 4.19962H15.5395Z" fill="white"/>
<path d="M25.2249 38.0508C18.1528 38.0508 12.4033 32.2968 12.4033 25.2293C12.4033 18.1617 18.1573 12.4077 25.2249 12.4077C32.2924 12.4077 38.0464 18.1617 38.0464 25.2293C38.0464 32.2968 32.2924 38.0508 25.2249 38.0508ZM25.2249 16.9846C20.6798 16.9846 16.9802 20.6842 16.9802 25.2293C16.9802 29.7743 20.6798 33.474 25.2249 33.474C29.7699 33.474 33.4696 29.7743 33.4696 25.2293C33.4696 20.6842 29.7699 16.9846 25.2249 16.9846Z" fill="white"/>
<path d="M38.2788 14.6942C39.9229 14.6942 41.2558 13.3614 41.2558 11.7172C41.2558 10.0731 39.9229 8.74023 38.2788 8.74023C36.6346 8.74023 35.3018 10.0731 35.3018 11.7172C35.3018 13.3614 36.6346 14.6942 38.2788 14.6942Z" fill="white"/>
</svg>
