<?xml version="1.0" encoding="UTF-8"?><svg id="Layer_1" xmlns="http://www.w3.org/2000/svg" width="60" height="60" viewBox="0 0 60 60"><defs><style>.cls-1{fill:#fff;}</style></defs><path class="cls-1" d="m30,55.5c-14.06,0-25.5-11.44-25.5-25.5S15.94,4.5,30,4.5s25.5,11.44,25.5,25.5-11.44,25.5-25.5,25.5Zm0-50c-13.51,0-24.5,10.99-24.5,24.5s10.99,24.5,24.5,24.5,24.5-10.99,24.5-24.5S43.51,5.5,30,5.5Z"/><path class="cls-1" d="m47.72,16.96v-1.02l-.81.69s0,0,0,0h-.01c-.07.07-6.87,5.83-12.43,6.97-1.37.28-2.43,1.01-3.16,2.16-2.06,3.26-.74,8.82-.68,9.05.07.27.33.43.6.37.27-.07.43-.34.37-.6-.01-.05-1.28-5.39.55-8.28.59-.93,1.41-1.49,2.51-1.71,4.53-.93,9.66-4.63,11.83-6.33-1.66,5.21-12.22,16.13-18.02,21.58-.2.19-.21.5-.02.71.1.11.23.16.36.16.12,0,.25-.04.34-.14.68-.64,14.98-14.12,18-21.28.43,2.86.76,8.15-1.53,12.85-3.21,6.58-9.48,4.55-9.74,4.46-.27-.09-.54.05-.63.31s.05.54.31.63c.03,0,1.18.39,2.79.39,2.46,0,5.99-.89,8.17-5.35,3.39-6.95,1.4-14.84,1.2-15.6Z"/><path class="cls-1" d="m13.45,25.13c1.98,1.5,6.3,4.48,10.13,5.25.96.19,1.66.67,2.16,1.46,1.54,2.44.46,6.89.45,6.93-.07.27.1.54.36.61.27.06.54-.1.61-.36.05-.2,1.2-4.91-.57-7.71-.65-1.02-1.59-1.66-2.81-1.91-4.82-.96-10.72-5.84-10.78-5.89l-.82-.68v1c-.2.72-1.89,7.39,1.05,13.29,1.91,3.82,5,4.58,7.16,4.58,1.41,0,2.42-.32,2.44-.33.26-.09.4-.37.32-.63-.09-.26-.37-.41-.63-.32-.23.08-5.63,1.78-8.4-3.75-1.93-3.85-1.71-8.17-1.36-10.64,2.83,6.16,14.99,17.36,15.57,17.9.1.09.22.13.34.13.13,0,.27-.05.37-.16.19-.2.17-.52-.03-.71-4.01-3.67-13.82-13.38-15.57-18.06Z"/></svg>