<?xml version="1.0" encoding="UTF-8"?><svg id="Layer_1" xmlns="http://www.w3.org/2000/svg" width="14" height="29" viewBox="0 0 14 29"><defs><style>.cls-1{fill:#fff;}</style></defs><path class="cls-1" d="m4.72,29c-1.51,0-2.97-.81-3.93-2.25-.31-.46-.18-1.07.28-1.38.46-.31,1.08-.18,1.39.28.88,1.32,2.12,1.51,2.92,1.27.78-.24,1.25-.87,1.25-1.71,0-.73-1.08-1.49-2.21-2.29-2.19-1.54-5.18-3.65-3.73-7.95,1.36-4.05,5.2-3.6,7.74-3.3,2.51.29,3.08.2,3.23-.55.37-1.83-.61-2.49-2.36-3.51-1.46-.85-3.46-2-2.61-4.56C7.27,1.26,8.58.12,10.18,0c1.39-.1,2.7.66,3.34,1.92.25.49.05,1.09-.45,1.33-.5.25-1.09.05-1.34-.44-.28-.55-.82-.88-1.4-.83-.76.05-1.41.69-1.75,1.69-.31.92.07,1.26,1.72,2.21,1.59.92,3.98,2.3,3.31,5.61-.54,2.7-3.25,2.38-5.42,2.13-2.96-.35-4.82-.39-5.61,1.96-.91,2.71.52,3.96,3,5.71,1.5,1.06,3.06,2.15,3.06,3.91s-1.05,3.12-2.67,3.61c-.41.12-.82.18-1.23.18Z"/></svg>