<svg width="30" height="25" viewBox="0 0 30 25" fill="none" xmlns="http://www.w3.org/2000/svg">
<path d="M1.59162 0.0084518C1.09659 0.0968274 0.6533 0.401003 0.359267 0.854062C0.0652329 1.30712 -0.0554566 1.87195 0.0237485 2.4243C0.102953 2.97665 0.375565 3.47127 0.781612 3.79934C1.18766 4.12742 1.69388 4.26209 2.18891 4.17371L7.78847 4.17371L8.12444 5.21502L9.65498 10.4216L11.1855 15.6282C11.3349 16.1697 11.9695 16.6695 12.4548 16.6695L25.5204 16.6695C26.043 16.6695 26.6403 16.1697 26.7896 15.6282L29.8134 5.21502C29.9627 4.67354 29.7387 4.17371 29.2161 4.17371L12.6414 4.17371L11.2229 1.17472C11.0718 0.830504 10.8385 0.539483 10.5487 0.333707C10.2589 0.12793 9.92378 0.0153808 9.58032 0.0084518L2.11425 0.0084518C2.00249 -0.00281727 1.89004 -0.00281727 1.77828 0.0084518C1.70368 0.00344898 1.62889 0.00344898 1.55429 0.0084518L1.59162 0.0084518ZM13.388 20.8347C12.3428 20.8347 11.5215 21.7511 11.5215 22.9174C11.5215 24.0836 12.3428 25 13.388 25C14.4333 25 15.2545 24.0836 15.2545 22.9174C15.2545 21.7511 14.4333 20.8347 13.388 20.8347ZM24.5871 20.8347C23.5419 20.8347 22.7206 21.7511 22.7206 22.9174C22.7206 24.0836 23.5419 25 24.5871 25C25.6324 25 26.4537 24.0836 26.4537 22.9174C26.4537 21.7511 25.6324 20.8347 24.5871 20.8347Z" fill="white"/>
</svg>
