<svg width="50" height="42" viewBox="0 0 50 42" fill="none" xmlns="http://www.w3.org/2000/svg">
<path d="M38.432 0H11.568C5.17904 0 0 5.17916 0 11.5683V29.8951C0 36.2843 5.17904 41.4634 11.568 41.4634H38.432C44.821 41.4634 50 36.2843 50 29.8951V11.5683C50 5.17916 44.821 0 38.432 0ZM11.568 3.39246H38.432C41.5567 3.39246 44.2819 5.15654 45.654 7.74235L32.7403 19.4049L30.2111 21.6891L25.032 26.3632L19.8379 21.6891L17.3012 19.4086L4.34602 7.74235C5.71806 5.15654 8.44327 3.39246 11.568 3.39246ZM3.39239 29.8951V11.5683C3.39239 11.5306 3.39239 11.4891 3.39616 11.4514L14.7682 21.6891L3.60347 31.7384C3.464 31.1466 3.39239 30.5284 3.39239 29.8951ZM38.432 38.071H11.568C8.9559 38.071 6.62646 36.8421 5.13004 34.9273L17.3049 23.9696L23.9012 29.9064C24.2216 30.2004 24.6287 30.3437 25.0358 30.3437C25.4429 30.3437 25.85 30.1967 26.1704 29.9064L32.7403 23.9734L44.87 34.9273C43.3735 36.8421 41.0441 38.071 38.432 38.071ZM46.6076 29.8951C46.6076 30.5284 46.536 31.1428 46.3965 31.7346L35.2733 21.6891L46.6038 11.459C46.6076 11.4929 46.6076 11.5306 46.6076 11.5683V29.8951Z" fill="white"/>
</svg>
