<?xml version="1.0" encoding="UTF-8"?><svg id="Layer_1" xmlns="http://www.w3.org/2000/svg" width="132.65" height="110" viewBox="0 0 132.65 110"><defs><style>.cls-1{fill:#311e02;}</style></defs><path class="cls-1" d="m101.96,0H30.69C13.74,0,0,13.74,0,30.69v48.62c0,16.95,13.74,30.69,30.69,30.69h71.27c16.95,0,30.69-13.74,30.69-30.69V30.69C132.65,13.74,118.91,0,101.96,0ZM30.69,9h71.27c8.29,0,15.52,4.68,19.16,11.54l-34.26,30.94-6.71,6.06-13.74,12.4-13.78-12.4-6.73-6.05L11.53,20.54c3.64-6.86,10.87-11.54,19.16-11.54ZM9,79.31V30.69c0-.1,0-.21.01-.31l30.17,27.16-29.62,26.66c-.37-1.57-.56-3.21-.56-4.89Zm92.96,21.69H30.69c-6.93,0-13.11-3.26-17.08-8.34l32.3-29.07,17.5,15.75c.85.78,1.93,1.16,3.01,1.16s2.16-.39,3.01-1.16l17.43-15.74,32.18,29.06c-3.97,5.08-10.15,8.34-17.08,8.34Zm21.69-21.69c0,1.68-.19,3.31-.56,4.88l-29.51-26.65,30.06-27.14c.01.09.01.19.01.29v48.62Z"/></svg>