<?xml version="1.0" encoding="UTF-8"?><svg id="Layer_1" xmlns="http://www.w3.org/2000/svg" width="60" height="60" viewBox="0 0 60 60"><defs><style>.cls-1{fill:#fff;}</style></defs><path class="cls-1" d="m18.65,31.84l-5.3,2.9.78.44c.06.03,5.75,3.21,12.92,4.64,6.16,1.23,10.29-.84,11.55-1.61l3.67,4.47c.29.35.85.21.94-.24l2.31-11.62c.09-.44-.38-.79-.78-.58l-5.16,2.75c-.9-.95-4-3.86-9.94-5.91-7.1-2.46-15.38,1.89-15.73,2.08l-.97.52,5.7,2.16Zm10.68-3.81c6.75,2.33,9.74,5.88,9.77,5.91l.26.32,5-2.67-1.93,9.7-3.64-4.42-.38.28s-4.3,3.06-11.16,1.69c-5.45-1.08-10.02-3.2-11.81-4.1l5.6-3.06-5.61-2.12c2.42-1.06,8.61-3.35,13.89-1.52Z"/><polygon class="cls-1" points="22.96 35.68 22.11 34.94 22.85 34.09 22.28 33.6 21.54 34.45 20.69 33.72 20.2 34.29 21.05 35.02 20.32 35.88 20.89 36.37 21.62 35.51 22.47 36.25 22.96 35.68"/><path class="cls-1" d="m30,4.5C15.94,4.5,4.5,15.94,4.5,30s11.44,25.5,25.5,25.5,25.5-11.44,25.5-25.5S44.06,4.5,30,4.5Zm0,1c9.5,0,17.76,5.44,21.82,13.37-1.64-.27-5.68-.83-10.19-.68-1.63.05-3.26.36-4.98.68-4.53.85-9.22,1.73-14.88-1.8-5.37-3.35-10.63-.65-13.31,1.27,4.15-7.64,12.25-12.84,21.54-12.84Zm0,49c-13.51,0-24.5-10.99-24.5-24.5,0-3.38.69-6.6,1.93-9.54.75-.72,7.24-6.64,13.8-2.54,3.33,2.08,6.39,2.71,9.22,2.71,2.26,0,4.38-.4,6.37-.77,1.68-.32,3.28-.62,4.83-.67,5.43-.18,10.18.69,10.69.79,1.38,3.06,2.15,6.45,2.15,10.02,0,13.51-10.99,24.5-24.5,24.5Z"/></svg>