<?xml version="1.0" encoding="UTF-8"?><svg id="Layer_1" xmlns="http://www.w3.org/2000/svg" width="65" height="65" viewBox="0 0 65 65"><defs><style>.cls-1{fill:none;stroke:#000;stroke-miterlimit:10;}</style></defs><path class="cls-1" d="m46.44,56.82s-3.09-4.36-1.37-7.73,8.92-12.58,9.73-13.97,1.17-12.48.91-12.82-2.21.29-2.42,1.76-1.23,6.45-2.18,8.72-7.25,7.4-7.85,7.31-1.78-.56,3.88-5.47c0,0,1.64-2.57.16-3.29-.87-.43-10.17,6.38-11.09,10.46-.85,3.79-.37,17.72-.37,17.72,0,0,7.75-.1,10.6-2.7Z"/><path class="cls-1" d="m18.56,56.82s3.09-4.36,1.37-7.73-8.92-12.58-9.73-13.97-1.17-12.48-.91-12.82,2.21.29,2.42,1.76,1.23,6.45,2.18,8.72,7.25,7.4,7.85,7.31,1.78-.56-3.88-5.47c0,0-1.64-2.57-.16-3.29.87-.43,10.17,6.38,11.09,10.46.85,3.79.37,17.72.37,17.72,0,0-7.75-.1-10.6-2.7Z"/><path d="m38.04,33.38l.25-.06.02-.06c-.09.05-.18.08-.27.12Z"/><path d="m32.5,5.48c-2.15,0-4.19.47-6.03,1.32-.62.28-1.22.6-1.78.97-4.02,2.58-6.69,7.09-6.69,12.21,0,7.79,6.16,14.16,13.87,14.48.13.01.25.02.38.01.08.01.17.01.25.01.47,0,.94-.02,1.4-.06.09-.02.18-.02.27-.04,1.36-.15,2.65-.49,3.87-1,.09-.04.18-.07.27-.12,5.11-2.24,8.69-7.35,8.69-13.28,0-8-6.5-14.5-14.5-14.5Zm13.5,14.5c0,1.83-.37,3.57-1.03,5.16-.5-.8-.97-1.73-.97-2.16s.24-1.14.47-1.84c.27-.81.53-1.58.53-2.16,0-.71-.37-1.08-.65-1.35-.24-.25-.35-.37-.35-.65,0-.31.61-.83,1.31-1.24.45,1.33.69,2.76.69,4.24Zm-13.5-13.5c1.48,0,2.91.24,4.25.69-.81.39-1.66.97-1.74,1.7-.47.18-2.26-.09-3.04-.21-.64-.1-1.15-.18-1.47-.18-.25,0-.66-.77-.93-1.68.94-.21,1.92-.32,2.93-.32Zm-13.5,13.5c0-3.8,1.58-7.24,4.12-9.69-.08.22-.12.45-.12.69,0,.4.12.81.23,1.21.25.88.33,1.32-.04,1.61-.32.26-3.19,2.58-3.19,5.18,0,2.2,1.11,4.32,2.15,5.35.28.28.57.67.89,1.08.77,1.01,1.74,2.27,3.24,3.02.6.3,1.11.51,1.53.68,1.06.44,1.19.54,1.19.87,0,.96,0,2.59.74,3.21-6.12-1.27-10.74-6.71-10.74-13.21Zm18.51,12.5l-.2.11c-1.5.58-3.12.89-4.81.89h-.08l-.04-.03c-.31-.35-.97-.97-1.88-.97-.19,0-.5-.33-.5-2.5,0-1.04-.76-1.36-1.81-1.79-.4-.17-.89-.37-1.47-.66-1.29-.64-2.14-1.75-2.89-2.73-.33-.43-.65-.85-.98-1.17-.92-.92-1.85-2.82-1.85-4.65,0-1.73,1.77-3.57,2.81-4.39.94-.73.62-1.85.39-2.67-.11-.35-.2-.68-.2-.94,0-.65.62-1.41.85-1.65l.1-.13c.11-.21.25-.45.42-.67.35-.23.72-.43,1.09-.62.09.34-.14,1.31-.23,1.72-.12.5-.23.98-.23,1.35,0,.39.18.61.33.73.48.37,1.25.18,2.07-.02.63-.16,1.31-.22,1.34-.15.05.11-.04.53-.59,1.09-.8.8-.68,2.12-.04,2.76.24.24.53.36.83.36.23,0,.57-.07.91-.42.28-.27.39-.29.39-.29.03,0,.11.06.18.1.22.13.56.34,1.08.34.71,0,1.08-.37,1.35-.65.25-.24.37-.35.65-.35.38,0,.5.21.5,1.5,0,.38-.53,1.43-.95,2.28-.65,1.31-1.05,2.14-1.05,2.72,0,.28-.11.4-.35.65-.28.27-.65.64-.65,1.35,0,1.29-.12,1.5-.5,1.5-.29,0-.42-.12-.62-.31-.26-.25-.66-.63-1.37-.39-.38.12-1.01,0-1.61-.12-.86-.16-1.86-.34-2.21.17-.26.37-.09.81.07,1.24.11.29.24.62.24.91,0,.25.09.47.27.63.41.4,1.16.37,1.96.33.3-.02.78-.04.98,0,.38,1.03,2.27,1.54,3.29,1.54.24,0,.38.09.56.2.57.35,1.04.4,1.79-.35.5-.5,1.52-.26,2.41-.06.38.09.74.18,1.06.2.09.53-.26,2.25-.81,4.01Zm1.2-.52c.46-1.58.87-3.52.4-4.17-.15-.2-.36-.31-.61-.31s-.62-.09-1.01-.18c-1.09-.25-2.45-.57-3.34.33-.28.27-.39.29-.39.29-.03,0-.11-.06-.18-.1-.22-.13-.56-.34-1.08-.34-1.04,0-2.28-.58-2.35-.89-.17-.74-1.09-.7-1.97-.65-.35.01-.96.04-1.18-.03-.02-.45-.18-.86-.3-1.2-.03-.07-.06-.15-.09-.23.33.02.72.09,1.1.17.73.13,1.48.28,2.11.08.14-.05.15-.05.38.17.24.23.62.58,1.3.58,1.5,0,1.5-1.5,1.5-2.5,0-.28.11-.4.35-.65.28-.27.65-.64.65-1.35,0-.38.53-1.43.95-2.28.65-1.31,1.05-2.14,1.05-2.72,0-1,0-2.5-1.5-2.5-.71,0-1.08.37-1.35.65-.25.24-.37.35-.65.35-.24,0-.38-.09-.56-.2-.57-.35-1.04-.41-1.79.35-.12.11-.19.12-.21.12-.05,0-.1-.05-.12-.07-.23-.23-.4-.92.03-1.35.76-.76,1.07-1.57.81-2.17-.17-.43-.6-.68-1.16-.68-.4,0-.88.12-1.34.24-.35.09-.92.22-1.16.21.01-.27.11-.68.2-1.07.19-.8.41-1.74.18-2.37.4-.16.81-.31,1.22-.43.27.95.87,2.42,1.9,2.42.24,0,.77.08,1.32.16,1.06.17,1.93.29,2.61.29.58,0,1.01-.09,1.28-.33.19-.16.29-.38.29-.62,0-.29,1-.89,2.09-1.28,3.09,1.41,5.56,3.95,6.87,7.09-.75.41-1.96,1.23-1.96,2.19,0,.71.37,1.08.65,1.35.24.25.35.37.35.65,0,.42-.24,1.14-.47,1.84-.27.81-.53,1.58-.53,2.16,0,.95,1.01,2.56,1.46,3.24-1.27,2.45-3.29,4.46-5.75,5.74Z"/></svg>