<?xml version="1.0" encoding="UTF-8"?><svg id="Layer_1" xmlns="http://www.w3.org/2000/svg" width="60" height="60" viewBox="0 0 60 60"><defs><style>.cls-1{fill:#fff;}</style></defs><path class="cls-1" d="m30,55.5c-14.06,0-25.5-11.44-25.5-25.5S15.94,4.5,30,4.5s25.5,11.44,25.5,25.5-11.44,25.5-25.5,25.5Zm0-50c-13.51,0-24.5,10.99-24.5,24.5s10.99,24.5,24.5,24.5,24.5-10.99,24.5-24.5S43.51,5.5,30,5.5Z"/><path class="cls-1" d="m38.5,33c0-1.04-.54-1.96-1.35-2.5.81-.54,1.35-1.46,1.35-2.5s-.55-1.98-1.37-2.51c.4-.28.72-.66.93-1.14.35-.79.34-1.7-.01-2.49-2.1-4.7-3.34-6.58-4.09-7.34.33-.31.54-.76.54-1.25v-1.55c0-.95-.77-1.72-1.72-1.72h-5.55c-.95,0-1.72.77-1.72,1.72v1.55c0,.49.21.93.54,1.25-.75.76-1.99,2.65-4.09,7.34-.35.79-.36,1.7-.01,2.49.21.47.53.85.93,1.14-.82.54-1.37,1.46-1.37,2.51s.54,1.96,1.35,2.5c-.81.54-1.35,1.46-1.35,2.5s.54,1.96,1.35,2.5c-.81.54-1.35,1.46-1.35,2.5s.54,1.96,1.35,2.5c-.81.54-1.35,1.46-1.35,2.5v4c0,1.65,1.34,2.99,3.07,2.99h.02l3.09-.56c1.66-.16,3.22-.16,4.6,0l3.13.57h.09c1.65,0,3-1.34,3-2.99v-4c0-1.04-.54-1.96-1.35-2.5.81-.54,1.35-1.46,1.35-2.5s-.54-1.96-1.35-2.5c.81-.54,1.35-1.46,1.35-2.5Zm-12-21.28c0-.4.32-.72.72-.72h5.55c.4,0,.72.32.72.72v1.55c0,.4-.32.72-.72.72h-5.55c-.4,0-.72-.32-.72-.72v-1.55Zm-2.63,13.17c-.45-.15-.81-.49-1.01-.95-.23-.52-.23-1.15,0-1.67,2.47-5.52,3.8-7.17,4.13-7.27h.22s0,0,0,0h5.55s.02,0,.03,0h.17c.36.1,1.69,1.76,4.16,7.28.23.53.24,1.15,0,1.67-.2.46-.56.8-1.01.95-.2.07-.42.1-.63.1h-11c-.21,0-.43-.03-.63-.1Zm-1.37,3.1c0-1.1.9-2,2-2h11c1.1,0,2,.9,2,2s-.9,2-2,2h-11c-1.1,0-2-.9-2-2Zm15,15v4c0,1.09-.87,1.98-1.96,2l-3.12-.57c-1.49-.16-3.12-.16-4.88,0l-3.04.56c-1.1,0-2-.9-2-2v-4c0-1.1.9-2,2-2h11c1.1,0,2,.9,2,2Zm0-5c0,1.1-.9,2-2,2h-11c-1.1,0-2-.9-2-2s.9-2,2-2h11c1.1,0,2,.9,2,2Zm-2-3h-11c-1.1,0-2-.9-2-2s.9-2,2-2h11c1.1,0,2,.9,2,2s-.9,2-2,2Z"/><path class="cls-1" d="m35.33,20.31l-1.8-3.12c-.14-.24-.44-.32-.68-.18-.24.14-.32.44-.18.68l1.8,3.12c.09.16.26.25.43.25.08,0,.17-.02.25-.07.24-.14.32-.44.18-.68Z"/><path class="cls-1" d="m36.25,23.89c.07,0,.13-.01.2-.04.25-.11.37-.41.26-.66l-.38-.86c-.11-.25-.41-.37-.66-.26-.25.11-.37.41-.26.66l.38.86c.08.19.27.3.46.3Z"/><rect class="cls-1" x="28.5" y="6" width="1" height="50" transform="translate(-13.43 29.59) rotate(-45)"/></svg>