<?xml version="1.0" encoding="UTF-8"?> <svg xmlns="http://www.w3.org/2000/svg" id="Layer_1" data-name="Layer 1" viewBox="0 0 237.48 189.55"><defs><style>.cls-1{fill:#575756;}.cls-2{fill:#f6f6f6;}</style></defs><title>pp_logo_</title><path class="cls-1" d="M83.38,3.41a22.24,22.24,0,1,0,0,44.48h22.24V3.41ZM109,51.29H83.38A25.65,25.65,0,1,1,83.38,0H109Z"></path><path class="cls-1" d="M127,47.89h22.24a22.24,22.24,0,0,0,0-44.48H127Zm22.24,3.4H123.61V0h25.65a25.65,25.65,0,0,1,0,51.29"></path><path class="cls-1" d="M83.38,69.25a22.24,22.24,0,1,0,0,44.48h22.24V69.25ZM109,117.13H83.38a25.65,25.65,0,1,1,0-51.29H109Z"></path><path class="cls-1" d="M127,113.73h22.24a22.24,22.24,0,0,0,0-44.48H127Zm22.24,3.4H123.61V65.84h25.65a25.65,25.65,0,0,1,0,51.29"></path><rect class="cls-1" x="105.62" y="47.92" width="21.4" height="21.33"></rect><path class="cls-1" d="M0,152H13.82c8.34,0,13.84,4.43,13.84,11.71v.11c0,8-6.66,12.09-14.52,12.09h-9v13H0Zm13.3,20.1c6.12,0,10.13-3.27,10.13-8.12v-.1c0-5.29-4-8-9.92-8H4.17v16.25Z"></path><path class="cls-1" d="M41,173.51V152h4.17v21.21c0,8,4.23,12.46,11.3,12.46,6.81,0,11.14-4.12,11.14-12.19V152h4.16v21.16c0,10.77-6.17,16.36-15.41,16.36S41,184,41,173.51"></path><path class="cls-1" d="M88,152h15.88c4.54,0,8.18,1.37,10.51,3.69a10.22,10.22,0,0,1,2.84,7.28v.11c0,6.12-4.22,9.71-10,10.76L118.55,189h-5.12l-10.71-14.35H92.16V189H88Zm15.51,18.84c5.54,0,9.5-2.85,9.5-7.6v-.11c0-4.54-3.48-7.28-9.45-7.28H92.16v15Z"></path><polygon class="cls-1" points="132.49 152.03 159.19 152.03 159.19 155.82 136.66 155.82 136.66 168.44 156.82 168.44 156.82 172.24 136.66 172.24 136.66 185.17 159.46 185.17 159.46 188.97 132.49 188.97 132.49 152.03"></polygon><polygon class="cls-1" points="174.19 152.03 178.36 152.03 178.36 185.12 199.16 185.12 199.16 188.97 174.19 188.97 174.19 152.03"></polygon><polygon class="cls-1" points="217.9 174.35 202.54 152.03 207.61 152.03 220.06 170.5 232.63 152.03 237.48 152.03 222.12 174.3 222.12 188.97 217.9 188.97 217.9 174.35"></polygon><rect class="cls-2" x="109.03" y="51.33" width="14.58" height="14.52"></rect></svg> 