<?xml version="1.0" encoding="UTF-8"?><svg id="Layer_1" xmlns="http://www.w3.org/2000/svg" width="247.48" height="200.55" viewBox="0 0 247.48 200.55"><defs><style>.cls-1{fill:#fff;}</style></defs><path class="cls-1" d="m19.82,156.5H5.5v37.91h5.14v-13h8.5c7.48,0,15.02-3.89,15.02-12.59v-.11c0-7.42-5.63-12.21-14.34-12.21Zm9.11,12.48c0,4.63-3.78,7.62-9.63,7.62l-8.63.03v-15.25h8.84c5.99,0,9.42,2.73,9.42,7.6Z"/><path class="cls-1" d="m73.11,178.48c0,7.65-3.68,11.69-10.64,11.69s-10.8-4.36-10.8-11.96v-21.71h-5.17v22.01c0,10.34,5.93,16.51,15.86,16.51s15.91-6.3,15.91-16.86v-21.66h-5.16v21.98Z"/><path class="cls-1" d="m123.73,168.08v-.1c.06-2.81-1.02-5.6-2.99-7.65-2.48-2.47-6.34-3.84-10.86-3.84h-16.38v38h5.16v-14.35h9.81l10.71,14.35h6.37l-11.45-15.33c6.05-1.37,9.63-5.47,9.63-11.09Zm-5.22.05v.11c0,4.31-3.53,7.1-9,7.1h-10.85s0-13.99,0-13.99h10.9c5.69,0,8.95,2.47,8.95,6.78Z"/><polygon class="cls-1" points="143.16 177.74 163.32 177.74 163.32 172.94 143.16 172.94 143.16 161.32 165.69 161.32 165.69 156.53 137.99 156.53 137.99 194.47 165.96 194.47 165.96 189.67 143.16 189.67 143.16 177.74"/><polygon class="cls-1" points="184.86 156.53 179.69 156.53 179.69 194.47 205.66 194.47 205.66 189.62 184.86 189.62 184.86 156.53"/><polygon class="cls-1" points="238.37 156.53 226.06 174.61 213.88 156.53 207.59 156.53 223.4 179.51 223.4 194.47 228.62 194.47 228.62 179.46 244.43 156.53 238.37 156.53"/><path class="cls-1" d="m155.28,69.84h-21.26v-12.55h21.26c14.37-.28,25.84-11.75,26.12-26.12.29-14.69-11.43-26.88-26.14-27.17h-26.65v47.92h-12.61V4h-27.65c-14.69.29-26.41,12.48-26.12,27.17.14,7.12,3.04,13.75,8.18,18.69,5.13,4.93,11.88,7.58,18.97,7.43h21.24v12.55h-22.27c-14.69.29-26.41,12.48-26.12,27.17.29,14.52,12.19,26.13,26.62,26.13.18,0,.35,0,.53,0h26.62v-47.88h12.61v47.88h26.67c14.37-.28,25.84-11.76,26.12-26.12.29-14.69-11.43-26.88-26.12-27.17Zm-26.67-12.51v12.51h-12.58s0-12.51,0-12.51h12.58Zm5.39-47.92h21.24c11.71,0,21.24,9.53,21.24,21.24s-9.53,21.24-21.24,21.24h-21.24V9.41Zm0,65.84h21.24c11.71,0,21.24,9.53,21.24,21.24s-9.53,21.24-21.24,21.24h-21.24v-42.48ZM110.62,9.41v42.48h-21.24c-11.71,0-21.24-9.53-21.24-21.24s9.53-21.24,21.24-21.24h21.24Zm0,65.84v42.48h-21.26c-5.67,0-11-2.21-15.02-6.23s-6.22-9.35-6.21-15.02c0-5.67,2.21-11,6.23-15.02,4.01-4.01,9.34-6.21,15.01-6.21h21.26Z"/></svg>