<?xml version="1.0" encoding="UTF-8"?><svg id="Layer_1" xmlns="http://www.w3.org/2000/svg" width="237.48" height="189.55" viewBox="0 0 237.48 189.55"><defs><style>.cls-1{fill:#311e02;}</style></defs><path class="cls-1" d="m0,152h13.82c8.34,0,13.84,4.43,13.84,11.71v.11c0,8-6.66,12.09-14.52,12.09H4.14v13H0v-36.91Zm13.3,20.1c6.12,0,10.13-3.27,10.13-8.12v-.1c0-5.29-4-8-9.92-8H4.17v16.25l9.13-.03Z"/><path class="cls-1" d="m41,173.51v-21.51h4.17v21.21c0,8,4.23,12.46,11.3,12.46s11.14-4.12,11.14-12.19v-21.48h4.16v21.16c0,10.77-6.17,16.36-15.41,16.36s-15.36-5.52-15.36-16.01"/><path class="cls-1" d="m88,152h15.88c4.54,0,8.18,1.37,10.51,3.69,1.87,1.95,2.9,4.57,2.84,7.28v.11c0,6.12-4.22,9.71-10,10.76l11.32,15.16h-5.12l-10.71-14.35h-10.56v14.35h-4.16v-37Zm15.51,18.84c5.54,0,9.5-2.85,9.5-7.6v-.11c0-4.54-3.48-7.28-9.45-7.28h-11.4v15h11.35Z"/><polygon class="cls-1" points="132.49 152.03 159.19 152.03 159.19 155.82 136.66 155.82 136.66 168.44 156.82 168.44 156.82 172.24 136.66 172.24 136.66 185.17 159.46 185.17 159.46 188.97 132.49 188.97 132.49 152.03"/><polygon class="cls-1" points="174.19 152.03 178.36 152.03 178.36 185.12 199.16 185.12 199.16 188.97 174.19 188.97 174.19 152.03"/><polygon class="cls-1" points="217.9 174.35 202.54 152.03 207.61 152.03 220.06 170.5 232.63 152.03 237.48 152.03 222.12 174.3 222.12 188.97 217.9 188.97 217.9 174.35"/><path class="cls-1" d="m149.26,65.84h-22.24v-14.55h22.24c13.77-.27,24.87-11.37,25.14-25.14C174.68,11.99,163.42.28,149.26,0h-25.65v47.92h-14.61V0h-25.62c-.34,0-.68,0-1.01,0-14.16.28-25.42,11.99-25.14,26.15.28,14.16,11.99,25.42,26.15,25.14h22.24v14.55h-22.24c-.34,0-.68,0-1.01,0-14.16.28-25.42,11.99-25.14,26.15.28,14.16,11.99,25.42,26.15,25.14h25.62v-47.88h14.61v47.88h25.65c13.77-.27,24.87-11.37,25.14-25.14.28-14.16-10.98-25.87-25.14-26.15ZM127,3.41h22.24c12.28,0,22.24,9.96,22.24,22.24s-9.96,22.24-22.24,22.24h-22.24V3.41ZM61.14,25.65c0-12.28,9.96-22.24,22.24-22.24h22.24v44.48h-22.24c-12.28,0-22.24-9.96-22.24-22.24Zm44.48,88.08h-22.26c-12.28,0-22.24-9.97-22.23-22.25,0-12.28,9.97-22.24,22.25-22.23h22.24v44.48Zm3.41-47.88v-14.52h14.58v14.51h0s-14.58.01-14.58.01Zm40.21,47.88h-22.24v-44.48h22.24c12.28,0,22.24,9.96,22.24,22.24s-9.96,22.24-22.24,22.24Z"/></svg>