<?xml version="1.0" encoding="UTF-8"?><svg id="Layer_1" xmlns="http://www.w3.org/2000/svg" width="65" height="65" viewBox="0 0 65 65"><path d="m45.86,28.24c-4.52-10.05-14.89-22.31-15-22.43l-.37-.44-.38.43c-.12.13-11.91,13.38-15.83,24.08-.78,1.81-1.22,3.71-1.29,5.65-.01.2-.01.4-.01.6,0,.25.01.48.02.72.41,8.85,8.08,15.78,17.48,15.78h.06c-.09-.33-.18-.66-.25-1-8.77-.09-15.91-6.57-16.29-14.82-.01-.23-.02-.45-.02-.68,0-.18,0-.36.01-.55.07-1.83.47-3.61,1.22-5.33,3.46-9.46,13.21-20.99,15.26-23.35,1.89,2.28,10.5,12.91,14.5,21.8,1.13,1.96,1.81,4.14,1.96,6.39.35.1.7.21,1.03.33-.11-2.52-.85-5.01-2.1-7.18Z"/><path d="m18.98,35.13h-1c0-4.09,3.9-10.96,4.07-11.25l.87.5c-.04.07-3.93,6.93-3.93,10.75Z"/><path d="m51.46,36.06l-.11-.72-.63.36c-.15.08-3.56,2.04-4.59,3.08-.26.26-1.39.51-2.47.76-2.33.52-5.52,1.24-7.53,3.24-2.86,2.86-2,11.29-1.77,13.1-3.69,2.12-6.9,2.75-6.96,2.76l.18.98c.11-.02,11.3-2.16,16.36-12.27l-.89-.45c-1.97,3.94-4.93,6.62-7.74,8.41-.25-2.36-.79-9.5,1.54-11.83,1.8-1.8,4.83-2.48,7.04-2.97,1.45-.32,2.49-.56,2.96-1.03.69-.69,2.7-1.92,3.74-2.54.3,2.36,1.06,9.77-.54,12.96-1.85,3.69-5.59,5.72-10.55,5.72v1c5.36,0,9.42-2.23,11.45-6.28,2.05-4.09.6-13.88.54-14.3Z"/></svg>