<?xml version="1.0" encoding="UTF-8"?><svg id="Layer_1" xmlns="http://www.w3.org/2000/svg" width="14" height="29" viewBox="0 0 14 29"><defs><style>.cls-1{fill:#fff;}</style></defs><ellipse class="cls-1" cx="6.45" cy="5.25" rx="2" ry="1.99"/><path class="cls-1" d="m6.45,7.36c-1.17,0-2.12-.95-2.12-2.12s.95-2.12,2.12-2.12,2.12.95,2.12,2.12-.95,2.12-2.12,2.12Zm0-3.98c-1.03,0-1.88.84-1.88,1.87s.84,1.87,1.88,1.87,1.88-.84,1.88-1.87-.84-1.87-1.88-1.87Z"/><path class="cls-1" d="m2.45,11.22c-.03,2.59,3.03,2.59,3,0,.03-2.59-3.03-2.59-3,0Z"/><path class="cls-1" d="m3.95,13.28c-.25,0-.51-.07-.74-.2-.57-.33-.9-1.01-.89-1.86,0-.85.31-1.53.89-1.86.46-.27,1.01-.27,1.47,0,.57.33.9,1.01.89,1.87,0,.85-.31,1.53-.89,1.86-.23.13-.48.2-.74.2Zm0-3.88c-.21,0-.42.06-.61.17-.49.29-.77.89-.76,1.65h0c0,.76.27,1.36.76,1.65.38.22.84.22,1.22,0,.49-.29.77-.89.76-1.65,0-.76-.27-1.36-.76-1.65-.19-.11-.4-.17-.61-.17Z"/><path class="cls-1" d="m7.58,13.6c-1.08,2.35,1.71,3.59,2.74,1.21,1.08-2.35-1.71-3.59-2.74-1.21Z"/><path class="cls-1" d="m8.7,16.22c-.47,0-.9-.22-1.18-.61-.39-.54-.41-1.29-.05-2.06.34-.78.91-1.27,1.57-1.34.53-.06,1.03.17,1.35.6.39.54.41,1.29.05,2.06-.34.78-.91,1.27-1.57,1.34-.06,0-.11,0-.16,0Zm.5-3.77s-.09,0-.14,0c-.57.06-1.07.5-1.37,1.2h0c-.32.69-.31,1.36.02,1.82.26.36.67.54,1.12.5.57-.06,1.07-.5,1.37-1.2.32-.69.31-1.36-.02-1.82-.23-.32-.59-.5-.98-.5Z"/><path class="cls-1" d="m3.58,19.79c1.02,2.38,3.82,1.15,2.74-1.21-1.02-2.38-3.82-1.15-2.74,1.21Z"/><path class="cls-1" d="m5.21,21.2c-.06,0-.11,0-.17,0-.66-.07-1.23-.56-1.57-1.35-.35-.78-.33-1.53.06-2.06.31-.43.81-.65,1.35-.59.66.07,1.23.56,1.57,1.35.35.77.33,1.53-.06,2.06-.28.38-.71.6-1.18.6Zm-.5-3.77c-.39,0-.75.18-.98.5-.33.46-.35,1.12-.03,1.81h0c.3.7.8,1.14,1.37,1.2.44.05.86-.14,1.12-.49.33-.46.35-1.12.03-1.81-.3-.7-.8-1.14-1.37-1.2-.05,0-.09,0-.14,0Z"/><path class="cls-1" d="m7.31,23.16c.66,1.56,3.34.38,2.63-1.16-.66-1.56-3.34-.38-2.63,1.16Z"/><path class="cls-1" d="m8.45,24.02c-.06,0-.12,0-.18,0-.49-.06-.87-.34-1.07-.8-.21-.45-.16-.93.13-1.33.36-.5,1.04-.8,1.66-.73.49.06.88.34,1.07.8.21.45.16.92-.13,1.33-.33.45-.92.74-1.48.74Zm.36-2.63c-.48,0-1,.25-1.28.64-.17.23-.32.6-.1,1.08h0c.2.48.59.62.87.66.52.06,1.12-.21,1.43-.63.17-.23.32-.61.1-1.08-.21-.48-.59-.62-.87-.66-.05,0-.1,0-.15,0Z"/><path class="cls-1" d="m6.19,28.81c1.55.5,2.39-1.89.82-2.35-1.55-.5-2.39,1.89-.82,2.35Z"/><path class="cls-1" d="m6.61,29c-.15,0-.3-.02-.46-.08-.47-.14-.79-.46-.89-.9-.11-.49.07-1.07.46-1.42.36-.33.84-.43,1.33-.27.47.14.79.46.89.9.11.49-.07,1.07-.46,1.42-.25.23-.55.34-.87.34Zm-.02-2.49c-.26,0-.5.09-.7.28-.33.3-.48.77-.39,1.18.06.25.23.57.72.72h0c.41.13.79.06,1.08-.21.33-.3.48-.77.39-1.18-.06-.25-.23-.57-.72-.72-.13-.04-.26-.06-.38-.06Z"/><path class="cls-1" d="m9.92,1.79c.68,1.24,2.14.08,1.44-1.13-.68-1.24-2.14-.08-1.44,1.13Z"/><path class="cls-1" d="m10.68,2.44h-.01c-.34,0-.64-.22-.85-.59-.26-.44-.27-.94-.04-1.33C9.97.19,10.28,0,10.61,0h.01c.34,0,.64.22.85.6.25.44.27.94.04,1.33-.19.32-.5.51-.83.51Zm-.07-2.19c-.24,0-.47.15-.61.39-.19.32-.18.72.04,1.09h0c.16.3.39.46.63.47.24.01.48-.15.62-.39.19-.32.18-.72-.04-1.08-.16-.3-.39-.46-.63-.47h0Z"/></svg>