<?xml version="1.0" encoding="UTF-8"?><svg id="Layer_1" xmlns="http://www.w3.org/2000/svg" width="45" height="47" viewBox="0 0 45 47"><path d="m10.43,32.96l-2.32,8h-2.08l-2.12-8h2.34l1.58,6.06,1.73-6.06h.87Z"/><path d="m16.84,32.96v.8h-2.87v2.42h2.41v.8h-2.41v3.17h3.35v.8h-5.67v-8h5.19Z"/><path d="m21.81,36.64h3.29v4.32h-.74l-.25-.55c-.64.46-1.33.69-2.04.69-1.18,0-2.1-.35-2.76-1.06s-.98-1.71-.98-3,.35-2.27,1.04-3.04,1.6-1.16,2.72-1.16c1.48,0,2.38.75,2.7,2.26l-1.09.5v-.19l-.02-.43c-.07-.94-.51-1.41-1.31-1.41-.59,0-.99.25-1.2.75s-.32,1.43-.32,2.79c0,1.27.09,2.14.26,2.6s.5.69.99.69c.57,0,.86-.32.86-.96v-1.97h-1.15v-.8Z"/><path d="m30.5,32.96l2.23,8h-2.33l-.47-1.73h-2.41l-.51,1.73h-.91l2.37-8h2.04Zm-2.76,5.46h1.96l-.94-3.54-1.02,3.54Z"/><path d="m39.82,32.96v8h-1.78l-3.34-5.06v5.06h-.78v-8h1.47l3.64,5.47v-5.47h.78Z"/><path d="m23.25,28.04s-4-5,0-10,12-5,14-9c0,0,2,13-2,17s-10,3-10,3c0,0,6-6,6-9,0,0-5,7-8,8Z"/><path d="m19.72,23.54s3.44-5.39,0-10.79c-3.44-5.39-10.32-5.39-12.04-9.71,0,0-1.72,14.02,1.72,18.34,3.44,4.31,8.6,3.24,8.6,3.24,0,0-5.16-6.47-5.16-9.71,0,0,4.3,7.55,6.88,8.63Z"/></svg>